<?xml version="1.0" encoding="utf-8"?>
<!-- Generator: Adobe Illustrator 25.2.0, SVG Export Plug-In . SVG Version: 6.00 Build 0)  -->
<svg version="1.1" id="Camada_1" xmlns="http://www.w3.org/2000/svg" xmlns:xlink="http://www.w3.org/1999/xlink" x="0px" y="0px"
	 viewBox="0 0 137 158" style="enable-background:new 0 0 137 158;" xml:space="preserve">
<style type="text/css">
	.st0{fill:#00A99A;}
</style>
<g id="Forma_1_3_">
	<g>
		<path class="st0" d="M119.1,52.2c0.3-0.1,0.1,0,0.3-0.2c-0.2-0.1-0.3-0.1-0.5-0.2c-0.1,0.2-0.1,0.3-0.2,0.5
			C119.1,52.3,118.9,52.4,119.1,52.2z M124.4,56.4c0.1-0.1,0.1-0.2,0.2-0.3c-0.3-0.2-0.3-0.3-0.5-0.5v-0.2c-0.2,0.1-0.4,0.1-0.7,0.2
			v0.3c-0.4,0.1-0.4,0.2-0.7,0.3v0.3h-0.2c-0.3-0.9-0.6-0.3-1.3-0.2v-0.2h-0.2c0.1-0.2,0.1-0.3,0.2-0.5h-0.2
			c-0.2-0.6-0.3-0.7-0.3-1.5h-0.3c-0.1-0.3,0-0.1-0.2-0.3c0-0.1,0.1-0.5-0.2-0.3v0.2h-0.2v-0.2h-0.2v-0.2h0.3
			c-0.1-0.3,0-0.1-0.2-0.3v-0.2c-0.2,0.1-0.3,0.1-0.5,0.3h-0.2c0.1-0.2,0.1-0.4,0.2-0.7c-0.3,0.1-0.4,0.2-0.8,0.2v-0.2h-0.2
			c-0.1,0.1-0.1,0.2-0.2,0.3c-0.4,0.2-0.2-0.1-0.5,0.3h-0.2c0.1-0.2,0.1-0.3,0.2-0.5h-0.2v-0.2h0.2v-0.5c-0.2,0.1-0.2,0.3-0.3,0.5
			h-0.3c0.1-0.2,0.1-0.2,0.3-0.3v-0.2c-0.2,0.1-0.3,0.1-0.5,0.2v-0.3h-0.5v-0.2c-0.2-0.1-0.3-0.1-0.5-0.2v0.2h-0.2v-0.5
			c-0.2,0.1-0.2,0.2-0.3,0.3v-0.3c-0.2,0.1-0.3,0.1-0.5,0.2v-0.3h-0.5l0.2-0.5h-0.3c-0.1,0.3,0,0.1-0.2,0.3v0.2
			c-0.2-0.1-0.3-0.1-0.5-0.2v-0.3c-0.2,0.1-0.4,0.1-0.7,0.2v-0.5c-0.2,0.1-0.4,0.1-0.7,0.2v-0.3h-0.3v0.3h-0.2v-0.5
			c-0.4,0-1.5-0.3-1.7-0.5h-0.2v0.5c-0.3-0.2-0.2-0.4-0.5-0.5c-0.2,0.2,0.2,0.2-0.2,0.3c-0.1-0.2-0.1-0.3-0.2-0.5h-0.2v0.2h-0.7
			c-0.2,0.1,0,0.4-0.5,0.3v-0.2c-0.5-0.1-1-0.2-1.5-0.3c0.1-0.5,0.3-0.4,0.3-1h-0.8v-0.2h-0.2v0.2H105v-0.2h-0.7v-0.2H104v-0.2
			c-0.9-0.5-1.8-0.5-2-1.7h-1v0.2h-0.2v-0.2h-0.5c0.1-0.3,0.1-0.6,0.2-0.8h-0.2c-0.1-0.2-0.1-0.4-0.2-0.7h0.2v-0.3
			c0.1-0.1,0.2-0.1,0.3-0.2v-0.3h0.2V43h0.2c0-1.1,0-1.5-0.3-2.2c-0.3-0.1-0.7-0.1-1-0.2c-0.1-0.6-0.4-1-0.7-1.5l-1,0.2
			c-0.1-0.4-0.1-0.8-0.2-1.2h-0.3c-0.1-1-0.4-1.3-0.7-2c-0.1-1.1-0.1-2.1-0.2-3.2h-0.3c-0.1-1-0.6-1.2-1-1.8h-0.5
			c-0.1,0.4-0.1,0.9-0.2,1.3c-0.2,0.1-0.3,0.1-0.5,0.2c-0.1,0.5-0.4,0.6-0.7,1h-0.2v0.5c-0.1,0.1-0.2,0.1-0.3,0.2v0.3
			c-0.1,0.1-0.2,0.1-0.3,0.2v0.3c-0.2,0.2-0.4,0.3-0.7,0.5v0.7h-0.2c-0.1,0.2-0.1,0.4-0.2,0.7h-0.2v0.5h-0.2V38h-0.2v0.3H91
			c-0.1,0.2-0.2,0.3-0.3,0.5h-0.5C90.1,39,90,39.2,90,39.4c-0.4-0.1-0.9-0.1-1.3-0.2c-0.1-0.3,0-0.1-0.2-0.3v-0.2
			c-0.2,0.1-0.3,0.1-0.5,0.2V39c-0.7,0.2-0.8-0.5-1.3-0.3v0.2h-0.3l-0.2,0.3h-0.7v0.2c-0.4,0.1-0.5-0.2-0.5-0.2h-0.7V39h-0.3v-0.2
			c-0.2-0.1-0.3-0.1-0.5-0.2v-0.3c-0.7,0-0.6-0.1-1-0.3v-0.2c-0.3,0.1-0.7,0.1-1,0.2v0.2c-0.1-0.1-0.2-0.1-0.3-0.2v0.3
			c-0.5,0.1-1,0.1-1.5,0.2v-0.2h-0.3v-0.2c-0.2-0.1-0.3-0.1-0.5-0.2c-0.1,0.3-0.1,0.3-0.2,0.7h-0.3c0.1,0.7,0.2,0.6,0.5,1h0.2v0.8
			c-1,0-1.3-0.4-2.3-0.3c-0.6,0.1-1.1,0.1-1.7,0.2l-0.2-0.5c-0.2,0.1-0.3,0.1-0.5,0.2v0.2c-0.2-0.1-0.3-0.1-0.5-0.2
			c-0.2,0.3-0.4,0.7-0.7,1c-0.6,0.1-1.1,0.1-1.7,0.2v0.5c-0.4-0.1-0.9-0.1-1.3-0.2l-0.2,0.3h-0.3v0.8h-0.2v-0.2
			c-0.1,0.1-0.2,0.1-0.3,0.2v-0.2h-0.3v0.3c-0.2,0.1-0.3,0.1-0.5,0.2c-0.1-0.2-0.1-0.3-0.2-0.5c-0.7-0.1-1.3-0.2-1.5-0.8
			c-0.5-0.1-0.6-0.2-0.7-0.7h-0.5v-0.2h-0.2c0.1-0.1,0.1-0.2,0.2-0.3H65v-1.7h-0.5v-0.2h-0.2v-0.8h-0.2v-0.3H64
			c0.1-0.7,0.2-1.3,0.3-2h0.2v-0.3h0.2c0.1-0.2-0.2-1-0.2-1h0.2c0.3-0.4,0.3,0,0.5-0.7h0.3c0.1-0.7,0.2-0.7-0.2-1.3
			c-0.1-0.1-0.2-0.1-0.3-0.2c-0.2-0.4,0.2-0.5,0.2-0.7H65c-0.3-0.4-0.8-0.5-1.5-0.5c0.1-0.5,0.3-0.4,0.3-0.5v-0.7H64
			c0-0.9-0.1-1.2-0.7-1.5V28c-0.2,0.1-0.3,0.1-0.5,0.2v0.2c-0.1-0.1-0.2-0.1-0.3-0.2v0.2h-0.7v-0.2h-0.5c0.1,0.2,0.3,0.3,0.3,0.3V29
			h0.2c-0.1,0.5-0.4,0.6-0.7,1h-0.5c-0.1,0.4-0.2,0.5-0.3,0.8h-0.8v-0.2h-0.3c-0.2,0.1,0.2,0.2,0.2,0.2c-0.1,0.1-0.1,0.2-0.2,0.3
			h-0.7v0.5h-0.2v0.2c-0.2-0.1-0.4-0.1-0.7-0.2v0.2h-0.3l-0.2,0.3c-0.2-0.1-0.3-0.1-0.5-0.2v0.2h-0.3v0.2c-0.6,0.2-0.9-0.5-1.3-0.3
			v0.2c-0.4,0.2-0.3,0.3-1,0.3c-0.1,0.2-0.1,0.4-0.2,0.7H54v0.7h-0.2v-0.2c-0.4,0.1-0.3,0.1-0.5,0.3H53v-0.2
			c-0.3-0.3-0.1-0.3-0.7-0.5v-0.5h-0.8v0.3H51c-0.1-0.2-0.1-0.3-0.2-0.5h-0.3V33c-0.2,0.2-0.2-0.2-0.2-0.2C50,32.9,49.8,33,49.5,33
			h-0.2c-0.2-0.3-0.3-0.6-0.5-0.8c-0.5-0.3-1.2,0.3-1.5,0.2v-0.2c-0.4-0.2-0.3-0.4-0.8-0.5v0.5h0.3v0.3c0.2,0.1,0.3,0.2,0.5,0.3v0.3
			c0.1,0.1,0.2,0.1,0.3,0.2v0.2c0.6,0.4,0.8,0,1,0.8h0.2c-0.1,0.3-0.5,0.4-0.3,1h0.2V36h0.2v0.3c0.1,0.1,0.2,0.1,0.3,0.2
			c0.5,0.7,0.3,1,0,1.7c0.4,0.2,1.5,0.6,2,0.2h0.5c-0.2,0.5,0,0.5,0,1.2h-0.8c-0.1,0.1-0.1,0.2-0.2,0.3c-0.3,0.2-0.8,0.2-1.3,0.2
			v0.2h-0.2v1.2H49c-0.3,0.3-0.6,0.5-0.8,0.8H48l0.2-0.5c-0.3,0.2-0.6,0.3-0.8,0.5c-0.1,0.1-0.1,0.2-0.2,0.3
			c-0.2,0.1-0.4,0.1-0.7,0.2v-0.2h-0.2v0.2c-0.2,0.1-0.3,0.1-0.5,0.2v0.3c-0.2-0.1-0.3-0.1-0.5-0.2c-0.1,0.3-0.2,0.4-0.2,0.8h-0.7
			c-0.1,0.3-0.1,0.6-0.2,0.8c-0.2,0.1-0.4,0.1-0.7,0.2l0.2-0.7c0.2-0.2,0.1,0,0.2-0.3c-0.2-0.1-0.2-0.1-0.3-0.3
			c-0.6,0.1-0.8,0.4-1.3,0.5v0.3c-0.4,0.1-0.9,0.1-1.3,0.2c-0.3-0.3-0.7-0.6-1-0.8c-0.1-0.2-0.2-0.3-0.3-0.5
			c-0.2-0.1-0.3-0.1-0.5-0.2v-0.2c-0.3,0.1-0.7,0.1-1,0.2c0-0.3,0.2-1.2,0.2-1.2h-0.2v-1.2h-0.2v-0.2h-0.5c-0.1-0.3-0.2-1.1-0.3-1.3
			V39c-0.3,0.2-0.3,0.2-0.7,0.3c-0.1,0.3,0,0.1-0.2,0.3v0.2h-0.7V40c-0.3,0.2-0.4,0.4-0.8,0.5c-0.2-0.2,0-0.1-0.3-0.2V40
			c-0.3,0.1-0.1,0-0.3,0.2h-0.2c-0.2,0.3,0.1,0.7,0.2,0.8c-2.3,0-4.6-0.3-6,0v2.3h0.2v-0.2h0.3v0.2h1.7v0.2h0.2
			c0.1,0.3,0.1,0.7,0.2,1h-0.2v0.2h0.2v0.2h-0.2c-0.1,0.1,0,0.2-0.3,0.2v-0.2c-0.1,0.1-0.2,0.1-0.3,0.2c-0.1,0-0.1-0.5-0.7-0.3v0.2
			c-0.6,0.2-0.9,0.3-1.7,0.3c0,0.7,0.2,2.1-0.2,2.5c0.2,0.9,0.6,0.6,1.2,1v0.2c0.2,0.1,0.3,0.1,0.5,0.2c0,0.4,0.2,0.5,0.2,0.7
			c0,0.1-0.3,0.1-0.2,0.5c0.1,0.1,0.2,0.1,0.3,0.2v0.3c0.1,0.1,0.2,0.1,0.3,0.2v0.5h0.2v0.2h-0.2c-0.1,0.7-0.1,1.4-0.2,2.2h-0.2v1
			c-0.4,1.4-0.6,3.3-1,4.7v1h-0.2c-0.1,0.8-0.2,1.7-0.3,2.5h-0.2v0.2c-0.2-0.1-0.4-0.1-0.7-0.2c0,0,0,0.6-0.2,0.3v-0.2
			c-0.1-0.1-0.2-0.1-0.3-0.2v-0.5c-0.6,0.1-1.2,0.1-1.8,0.2c-0.2,0.2-0.3,0.4-0.5,0.7h-1.2v0.2h-0.5v0.2h-0.5v0.2h-1.3
			c-0.1,0.2-0.2,0.3-0.3,0.5h-0.3c-0.1,0.1-0.1,0.2-0.2,0.3c-0.3,0.1-0.6,0.1-0.8,0.2c-0.2,0.2-0.3,0.4-0.5,0.7
			c-0.4,0.3-0.9,0.3-1.2,0.7H17v0.7h-0.2v0.3h-0.2V68h-0.2v0.3c-0.2,0.2-0.4,0.3-0.7,0.5v0.5h-0.2c-0.2,0.5,0.1,0.8,0.3,1v0.8
			c-0.1,0.2-0.5,0.1-0.7,0.2v0.2c-0.3,0.1-0.7,0.2-1,0.3V72c-0.2,0.1-0.3,0.2-0.5,0.3c-0.1,0.8-0.4,1.1,0.2,1.5
			c-0.2,0.3-0.4,0.4-0.8,0.5c-0.1,0.3-0.1,0.6-0.2,0.8c0.5,0.1,0.6,0.3,1,0.5c-0.1,0.4,0,0.3-0.3,0.5v0.2c0.2,0.1,0.3,0.1,0.5,0.2
			c0.2,0.2,0.3,1,0.3,1.3c0.4,0.2,0.5,0.4,1,0.5c0.1,0.7,0.1,0.4,0.5,0.8h0.2c0.3,0.5-0.2,0.4,0.5,0.8c-0.1,0.3-0.1,0.7-0.2,1h-0.3
			c-0.1,0.4,0,0.3-0.3,0.5c0.4,0.3,1.1,0,1.7,0.2c0.5,0.1,1.1,0.4,1.7,0.5V83h0.3v0.8c1.2,0,2.7,0,3.7-0.2v-0.3
			c0.8-0.2,0.8-0.7,1.5-0.8v-0.3c0.5-0.1,0.4-0.2,0.8-0.3c-0.1,0.6-0.1,0.5,0,1.2h-0.3v4.3c0.6,0.1,0.9,0.6,1.7,0.3
			c0.4-0.1,0.7-0.7,1.5-0.5v0.2h1.2v-0.2h0.2v0.2c0.8,0.1,1.6,0.1,2.3,0.2c0.1,0.3,0,0.1,0.2,0.3c0.2,0.2,0,0.1,0.3,0.2
			c0.3-0.4,0.4-0.1,0.8-0.3v-0.2h0.3c0.3-0.4,0.6-0.9,0.8-1.3c0.4,0.1,0.9,0.1,1.3,0.2V86h0.3v-0.3c0.2-0.1,0.4-0.1,0.7-0.2v-0.3
			c0.5-0.1,1-0.2,1.5-0.3c0.1-0.4,0.1-0.3,0.3-0.5v-0.2h0.3c0.1-0.2,0.2-0.3,0.3-0.5c0.2-0.1,0.4-0.1,0.7-0.2v-0.2h0.8v-0.2h0.5V83
			c0.4-0.1,0.4,0.1,0.7,0.2V83c0.6,0.1,1.1,0.1,1.7,0.2V83c0.3-0.2,0.3-0.2,0.7-0.3c0.1,0.3,0.1,0.6,0.2,0.8h-0.2v0.2h0.2V85h-0.2
			c-0.1,0.2-0.2,0.4-0.3,0.7h0.2v0.5h0.2v0.7c0.1,0.1,0.2,0.1,0.3,0.2c-0.1,0.3-0.1,0.6-0.2,0.8h-0.2c0.1,0.5,0.1,1,0.2,1.5H45V90
			h-0.2v0.2c0.3,0.2,0.5-0.1,0.7-0.2c0.1,0.4,0.1,0.8,0.2,1.2h0.8c-0.5,0.4,0.7,0.8,1.2,0.8c0.1,0.5,0.2,0.5,0.3,0.8
			c0.6,0.1,1.2,0.1,1.8,0.2v-0.2c0.2-0.1,0.4-0.1,0.7-0.2v0.2H51l0.2,0.3h0.3v0.2c0.2,0.1,0.3,0.1,0.5,0.2v0.2
			c0.2,0-0.1-0.1,0.2-0.2h0.7c0.1,0.2,0.1,0.4,0.2,0.7h0.5v0.3h0.3v0.3c0.2-0.1,0.3-0.1,0.5-0.2v0.2h0.2V95h0.7
			c0.1,0.1,0.1,0.2,0.2,0.3c0.3,0.1,0.5-0.2,0.5-0.2c0.2,0.1,0.3,0.1,0.5,0.2c0.2,1.1,0.5,0.5,0.8,1v0.3c1.6,0,2.5-0.2,3.5,0V97
			c0.7,0.1,1.1,0.5,1.7,0.7c0.1,0.3,0.1,0.7,0.2,1c0,0.1-0.4,0-0.3,0.5h0.2c0.1,0.3,0.1,0.6,0.2,0.8h0.2v0.3h0.2v0.3H63
			c0.1,0.6,0.1,1.1,0.2,1.7H62c0.1,0.6,0.7,1.1,1.2,1.3c0.1,1,0.1,2,0.2,3H67c0.1-0.5,0-0.4,0.5-0.5c0.1-0.5,0.2-0.4,0.5-0.7v-0.2
			h0.5v-0.2h0.2c-0.1-0.2-0.2-0.4-0.3-0.7c0.2-0.1,0.3-0.1,0.5-0.2c0.2,0.2,0.4,0.2,0.5,0.3v0.3c0.2,0.1,0.3,0.1,0.5,0.2v0.2
			c0.2,0.2,0.3,0.2,0.7,0.3c0.2-0.8,0.8-0.8,1-1.7h0.3v0.5h0.2c0,0.8,0.2,0.8,0.3,1.3c0.2-0.1,0.3-0.2,0.5-0.3v-0.2h0.5v-0.2h0.2
			v-0.2h-0.5c0-1.3,0.6-0.9,0.8-1.8h1.2c-0.1-0.4-0.2-0.5-0.5-0.7v-0.7h0.2c0.2-0.2,0-0.1,0.3-0.2c0.1,0.3,0.1,0.3,0.2,0.7
			c0.2-0.1,0.3-0.2,0.5-0.3l0.2-0.3h-0.2v-0.2h0.2v-0.5h0.2c0-0.2-0.3-0.5-0.2-0.8c0.1-0.1,0.2-0.1,0.3-0.2v-0.8h-0.2
			c-0.1-0.5-0.3-0.7-0.8-0.8v-0.2c-0.2,0.1-0.3,0.1-0.5,0.2v0.2c-0.6,0.1-1.1,0.1-1.7,0.2v0.2c-0.2,0.1-0.4,0.1-0.7,0.2l-0.2,0.3
			c-0.3,0.3-0.8,0.4-1,0.8v0.5h-0.2v0.3h-0.2v0.5h-0.2c-0.2,0.2-0.3,0.4-0.5,0.7c-0.6,0.1-1.4,0.2-2.2,0.2c-0.3-0.3-0.4-0.1-0.7-0.3
			c-0.1-0.2-0.2-0.3-0.3-0.5h-0.2v-0.3c-0.2-0.1-0.3-0.2-0.5-0.3v-0.3c-0.1-0.1-0.2-0.1-0.3-0.2V100h-0.2c-0.1-0.2-0.1-0.3-0.2-0.5
			h-0.2c-0.2-0.3,0.2-0.5,0.2-0.7h-0.2v-0.5c-0.4-0.1-0.5-0.1-0.7-0.3c-0.2-0.2-0.1,0-0.2-0.3h0.2v-0.2c0.3-0.1,0.2,0.1,0.3,0.2
			c0.5-0.1,0.5-0.2,0.8-0.3c0-0.5-0.1-0.6-0.3-0.8v-0.2h-0.5V96h-0.5c-0.1-0.3-0.1-0.6-0.2-0.8c-0.2-0.1-0.3-0.2-0.5-0.3v-0.3h-0.2
			c0.1-0.3,0.1-0.6,0.2-0.8h0.2V93c0.1-0.1,0.2-0.1,0.3-0.2c0.1-0.3,0.1-0.6,0.2-0.8c-0.3,0.1-0.7,0.1-1,0.2v-0.5
			c0.3-0.1,0.1,0,0.3-0.2c0.4-0.4,0.3-1.4,0.2-1.8c0.3-0.1,0.7-0.1,1-0.2v-0.2h0.3v-0.2c0.4,0.1,0.8,0.1,1.2,0.2v-0.2
			c0.3-0.1,0.6-0.1,0.8-0.2v0.2h0.3v0.2c0.5,0.2,1.2-0.2,1.5-0.2v0.2c0.5,0.4,0.2,0.6,0.5,1.2h0.2v0.3h0.2v0.8
			c0.4,0.3,0.9,0.6,1.3,0.8h0.2c0.1,0.3,0.1,0.7,0.2,1h-0.7v0.7h0.2c0.1,0.3,0,0.1,0.2,0.3v0.2h0.8c0.1,0.1,0.1,0.3,0.3,0.3
			c0.1-0.1,0.2-0.2,0.3-0.3h0.3c-0.3,0.5-0.3,0.3-0.3,1.2h0.8c-0.1,0.5-0.3,0.6-0.3,1.3c0.2,0.1,0.4,0.1,0.7,0.2
			c0.1-0.2,0.3-0.2,0.5-0.3v-0.8c1.3,0,1.5-0.7,2.3-1.2c-0.1-0.5-0.5-1.1-0.3-1.7h0.2V93c0.2-0.1,0.3-0.2,0.5-0.3v-0.8h0.2
			c0.2-0.3,0.4-0.4,0.7-0.7c0.5,0.1,0.5,0.2,0.8,0.3c-0.1,0.6-0.1,0.4,0,1c0.7,0,0.6-0.1,1-0.3c0.1,0.2,0.3,0.6,0.2,1
			c0,0-0.3,0.1-0.2,0.3h0.2c0.2,0.3,0.3,0.3,0.3,0.8c0.3-0.1,0.6-0.1,0.8-0.2c0.1,0.4,0.1,0.5,0.3,0.7c0.1,0.3,0,0.1,0.2,0.3
			c0.5-0.7,1-1.4,1.5-2.2h0.2c-0.2,0.6-0.4,1.2-0.7,1.8c-0.2,0.1-0.3,0.2-0.5,0.3v0.3h-0.2v0.3h-0.2c-0.2,0.2-0.1,0.3-0.2,0.7
			c0.9,0,0.8-0.3,1.2-0.8h0.2c0.1-0.2,0.2-0.3,0.3-0.5h0.5c-0.1,0.4-0.2,0.5-0.5,0.7c0.4,0.6,0.8,0.4,1.2,1c0.6-0.1,0.7-0.1,0.8-0.7
			H86c-0.1,0.2-0.1,0.4-0.2,0.7c0.8-0.1,1.7-0.2,2.5-0.3v-0.2h0.3v-0.2h0.5V96H91c0,0,0.1-0.3,0.3-0.2V96c0.2,0.1,0.3,0.1,0.5,0.2
			v0.2h0.5c0.1,0.1,0.1,0.2,0.2,0.3h0.3v0.2h0.7v-0.2c0.4-0.4-0.1-0.6,0.2-1.2c0.2-0.2,0.4-0.3,0.7-0.5l-0.2-0.5H94
			c-0.2-0.9,0.3-0.8,0.5-1.2v-1.7h0.2c0.2-0.8-0.3-1-0.3-1.7c0.3,0.1,0.6,0.1,0.8,0.2v-0.8c0.5,0.1,0.5,0,0.7,0.3h0.3
			c-0.1-0.2-0.2-0.3-0.3-0.5h-0.3c-0.3-0.3-0.6-0.7-0.8-1h-0.3V88c-0.2-0.1-0.3-0.2-0.5-0.3c-0.2-0.2,0.1-0.1-0.2-0.3
			c0.1-0.3,0.1-0.6,0.2-0.8h0.3c0.1,0.5,0.2,0.5,0.3,0.8c0.8-0.1,0.4-0.2,0.8-0.5v-0.2c0.3,0,0.4,0.4,0.5,0.5h0.3
			c-0.1-0.2-0.1-0.3-0.2-0.5h-0.2c0,0,0.8-1.2,0.8-1.3c-0.5-0.2-0.2-0.2-0.7,0l-0.2-0.5c-0.2-0.2-0.1,0-0.2-0.3
			c0.2-0.1,0.3-0.1,0.5-0.2v-0.2c0.2-0.1,0.7,0.3,0.8,0.3v0.2h0.7c0.4,0.2,0.8,0.4,1.2,0.7v-0.2H99v-0.8c0.1-0.1,0.2-0.1,0.3-0.2
			c0.1-0.3,0.1-0.6,0.2-0.8h0.2V83c0.1-0.1,0.2-0.1,0.3-0.2c0.1-0.6,0.2-1.1,0.3-1.7c0.2-0.2,0.4-0.3,0.7-0.5v-0.3
			c0.1-0.1,0.2-0.1,0.3-0.2l0.2-0.5h0.5v-0.2c0.1-0.1,0.2-0.1,0.3-0.2c0.3-0.5-0.3-0.4,0.5-0.7c0.1-0.5,0.1-0.6,0.3-0.8h0.2v-0.3
			h0.2v-0.2c0.2,0.2,0.4,0.3,0.7,0.5v0.7c1.6,0.4,0.1,1.5,0.8,2.3V81h0.5c0.1-0.4,0.2-0.4,0.3-0.7h0.2c0.2-0.4-0.1-1.3-0.2-1.5v-2
			h-0.2v-0.5h-0.2v-0.7h-0.2c0.1-0.3,0.1-0.6,0.2-0.8h0.2c0.1-0.2-0.2-0.3-0.2-0.3c0-0.2,0.1,0.1,0.2-0.2c-0.1-0.5-0.1-1-0.2-1.5
			c0.3-0.1,0.6-0.1,0.8-0.2c0.1-0.3,0.1-0.6,0.2-0.8h0.3c0,1.7-0.8,2.1-0.8,3.7c1.3-0.4,0.5-2,1.7-2.3c0.1-0.8,0.1-0.9,0-1.7
			c0.3-0.1,0.1,0,0.3-0.2h0.2v-0.2c-0.1-0.1-0.2-0.1-0.3-0.2c-0.2-0.4-0.2-1-0.5-1.3v-1.3h0.2v-0.2h0.2v0.5h0.2v0.2
			c0.2-0.1,0.3-0.1,0.5-0.2V68c-0.5-0.1-0.5-0.2-0.8-0.3c-0.1-0.3-0.1-0.7-0.2-1h0.2v-0.2h0.7c0.1,0.2,0.2,0.3,0.3,0.5
			c0.3-0.1,0.7-0.2,1-0.3v-0.2c0.8,0.1,0.6,0.5,1.3,0.7c0.4,0.3,1-0.3,1.2-0.7h0.5v0.2h-0.2c0.1,0.2,0,0,0.2,0.2v0.2
			c0.1-0.1,0.5-0.3,0.8-0.2v0.2c0.5,0.1,0.4,0,0.5,0.5c0.4,0,0.6,0.2,0.7,0.2v-0.2h0.3c0.1-0.2,0.1-0.3,0.2-0.5h0.2
			c0.4-0.5,1.2-1,1.3-1.7h0.2c-0.1-0.5-0.2-1-0.3-1.5h0.2v-0.3c0.4,0.3,0.9,0.6,1.3,0.8c0.4-0.1,0.4-0.1,0.7-0.3v-0.2h0.5v-0.2
			c0.2-0.1,0.3-0.2,0.5-0.3c0.1-0.3,0.1-0.6,0.2-0.8h0.2c0.2-0.3,0.2-0.3,0.3-0.7c0.2-0.2-0.1-0.9-0.2-1.3c0.8-0.2,0.2-0.2,0.5-0.7
			c0.2-0.1,0.3-0.2,0.5-0.3v-0.2c0.3-0.1,0.1,0.2,0.2,0.3c0.2,0,0.4-0.3,0.5-0.5h0.2v0.5c0.2-0.1,0.4-0.1,0.7-0.2
			c-0.1-0.5-0.1-1-0.2-1.5h0.2c0.2-0.4,0.4-0.5,0.5-1c0.3-0.1,0.6-0.1,0.8-0.2c0.2-0.5,0.2-0.3,0-0.8c0.2,0.1,0,0,0.2,0.2h0.2v0.5
			h0.3C124.8,56.4,124.4,56.4,124.4,56.4z"/>
	</g>
</g>
</svg>
