<?xml version="1.0" encoding="utf-8"?>
<!-- Generator: Adobe Illustrator 25.2.0, SVG Export Plug-In . SVG Version: 6.00 Build 0)  -->
<svg version="1.1" id="Camada_1" xmlns="http://www.w3.org/2000/svg" xmlns:xlink="http://www.w3.org/1999/xlink" x="0px" y="0px"
	 viewBox="0 0 137 158" style="enable-background:new 0 0 137 158;" xml:space="preserve">
<style type="text/css">
	.st0{fill:#FDC46E;}
</style>
<g id="caatinga2_1">
	<g>
		<path class="st0" d="M107.4,65.9c-0.3-0.1-0.3-0.2-0.4-0.4c-0.3,0-0.2,0.1-0.5,0.2h0c-0.2-0.3-0.2-0.8-0.3-1c-0.1,0-0.2,0-0.3,0
			c-0.1-0.1-0.1-0.1-0.2-0.2c0.3-0.3,0.5-0.7,0.8-1c0.7-0.4,2.2-0.9,1.8-2.1c-0.2-0.4-0.7-0.4-0.9-0.7c0.3-0.5,1.1-0.4,1.4-0.9
			c-0.1-0.1-0.2-0.2-0.3-0.3c0-0.3,0-0.7,0.1-1c-0.1-0.1-0.2-0.2-0.3-0.4c-0.2-0.5,0-0.9-0.2-1.3c-0.2-0.3-0.5-0.5-0.7-0.8
			c-0.1-0.3-0.2-1.3-0.1-1.6c0.1-0.2,0.3-0.3,0.3-0.5c0.1-0.7-0.3-2,0.4-2.3c-0.1-0.9-0.8-2.4-1.3-3.1c-0.4-0.7-1.2-1.2-1.1-2.3
			c-0.6-0.1-1.4-0.4-2-0.6c-0.3,0-0.6,0-0.9,0c-0.3-0.1-0.5-0.1-0.8-0.2c-0.5,0.1-0.9,0.4-1.3,0.4c-0.6,0.1-1-0.1-1.3,0
			c-0.5-0.4-2.4-0.2-3.2-0.1c-0.1-0.1-0.1-0.1-0.1-0.2c-0.7,0.2-0.9-0.7-1.4-0.9c-0.2-0.1-0.5-0.1-0.6-0.1c-0.2-0.1-0.5,0.2-0.9,0.1
			c-0.2,0-0.2-0.3-0.5-0.2c-0.1,0-0.2,0.2-0.4,0.1c-0.7-0.3-0.7-1.4-1.3-1.9c0,0-1.4-0.6-1.4-0.6c-0.2,0-0.3,0.1-0.5,0.1
			c-0.5-0.1-1.7-1.4-1.8-2c-0.8,0.1-1.3-0.7-1.8-1.1c-0.9-0.8-1.5-1.5-2.3-2.4c-0.1-0.2-0.4-0.1-0.6-0.3c-0.4-0.3-1-1.1-1.2-1.7
			c-0.1,0-0.3,0.2-0.5,0.1c-0.7-0.2-1.4-0.5-1.9-0.9c-0.1-0.2-0.3-0.4-0.4-0.6c-0.3,0.4-1.4-1-1.5-1.1c-0.2,0-0.3,0.1-0.5,0.1
			c-0.2-0.1-1-0.7-1.1-0.9c-0.2-0.2-0.3-0.6-0.6-0.7c-0.7-0.3-1.1-0.3-1.7-0.6c-0.2-0.2-0.4-0.3-0.7-0.5c-0.1,0-0.3,0-0.4-0.1
			c-0.1-0.1-0.1-0.2-0.2-0.4c-0.3-0.2-0.7-0.1-1-0.3c-0.5-0.3-1.1-0.8-1.7-1c-0.2-0.1-1.2-0.3-1.4-0.3l-0.2,0.1
			c-0.1-0.1-0.2-0.1-0.3-0.2c-0.5,0.2-2.2-0.1-2.6-0.2c-0.3,0.1-0.4,0.4-0.7,0.5c-0.5,0-1,0-1.5,0c-0.1,0.1-0.3,0.2-0.6,0.3
			c0,0,0-0.1-0.1-0.1c-0.5-0.2-1.2,0.4-2,0.3c-0.5,0-1,0-1.5-0.1l-0.5,0.3c-0.4,0.1-1-0.2-1.6-0.1c0,0.3-0.1,0.5-0.2,0.7l-0.2,0
			c-0.5-0.4-0.8-0.5-1.4-0.9c-0.2,0.1-0.4,0.4-0.4,0.6C54.1,28.9,54.1,29,54,29c-0.3-0.2-0.9-1-1.1-1.4c-0.2,0-0.3,0.1-0.3,0.2
			c-0.2,0.5,0.5,1.9,0.7,2.2c0.3,0.2,0.6,0.2,0.8,0.5c0,0,0,0,0.1,0.1C54,30.8,54,30.9,53.9,31c-0.2,0.2-0.5-0.1-0.9-0.1
			c-0.1,0.5-0.2,0.8-0.6,1c-0.4-0.2-1.1-0.5-1.5-0.4h-0.1c-0.5,0.8,0,1.1-1.1,1.5h-0.1c0.1-0.4,0.5-0.6,0.5-1c0,0,0,0,0-0.1
			c-0.3,0-0.6-0.1-0.9-0.1c-0.1,0.1-0.7,0.8-0.7,0.8c0.1,0.1,0.1,0.2,0.2,0.3c0,0.1,0.1,0.1,0.1,0.2c-0.4,0.1-0.5-0.1-0.9-0.1
			c0,0,0,0-0.1,0c0,0.1,0,0.1-0.1,0.2v0.5c0.1,0,0.2,0,0.4,0c0,0,0.1,0,0.1,0.1c-0.1,0.6-0.7,0.5-0.7,1.3c0.5,0.1,0.7-0.5,1.1-0.7
			h0.3c0,0.6,0,1-0.2,1.4c-0.2,0.1-0.4,0.1-0.6,0.2c0,0,0,0-0.1,0.1c-0.3-0.2-0.4-0.7-0.8-0.9c0,0,0,0-0.1-0.1
			c-0.2,0.2-0.2,0.7-0.3,1.1c-0.1,0-0.1,0-0.2,0.1c-0.1-0.1-0.2-0.3-0.3-0.4c-0.7,0-1.2,0.4-1.1,1.1C45,37,45,37.1,44.9,37.1
			c0.2,0.1,0.4,0.3,0.7,0.4c0,0.3,0,0.6,0,0.9c0.1,0.1,0.2,0.2,0.3,0.3c0.2,0,0.9-0.1,1.1-0.2c0.4-0.2,0.2-0.4,0.9-0.4
			c0,0,0,0,0,0.1c-0.1,0.2-0.1,0.2-0.2,0.3c-0.1,0.2-0.1,0.8-0.2,1.1c0.3,0.8,0.2,2.1-0.4,2.7c-0.2,0.2-0.4,0.1-0.5,0.4
			c0,0,0,0.1,0,0.1c0.1,0.1,0.3,0.1,0.4,0.2v0.3c0.2,0.2,0.5,0.5,0.8,0.5c0,0.2,0.1,0.4,0.1,0.6c-0.1,0.1-0.3,0.2-0.4,0.4
			c-0.2,0.4,0.1,1,0.2,1.4c0.1,0.5,0,1.1-0.1,1.5c-0.2,0.1-0.3,0.1-0.6,0c-0.2-0.3-0.2-0.8-0.4-1.1h-0.2c-0.1,0.3-0.2,0.6-0.3,0.9
			c-0.9,0.1-0.8-1.1-1.8-1c0,0,0,0-0.1,0c0,0.7,0.4,0.7,0.7,1v0.1c-0.3,0-0.8-0.5-1,0c-0.3,0.5,0.6,1,0.4,1.6
			c-0.1,0.2-0.1,0.2-0.3,0.3c-0.3,0.1-0.6-0.1-0.9-0.2c-0.6,0.1-0.7,0.5-1,0.9v0.2c0.1,0.1,0.3,0.1,0.4,0.2
			c-0.1,0.2-0.1,0.4-0.2,0.6c0.2,0.3,0.3,0.2,0.3,0.6c-0.1,0.1-0.4,0.1-0.6,0.2c-0.2,0.2-0.2,0.4-0.5,0.5c-0.3,0.1-0.5-0.1-0.7-0.1
			h0c-0.1,0.3-0.1,0.9,0.1,1.1c0.1,0.2,0.3,0.1,0.5,0c0,0,0,0,0.1,0.1c0,0.2-0.1,0.4-0.1,0.6c0.4,0.4,0.9,0.5,1.2,1.1
			c0.1,0,0.3,0,0.4,0c0.2-0.6-0.1-1.8,0.4-2.1c0.1-0.1,0.2-0.2,0.5-0.2c0.1,0.4,0,0.9,0.2,1.2c0.2,0.3,0.9,0.6,1.3,0.7
			c0,0.1,0.1,0.2,0.1,0.3c0,0.1,0,0.3-0.1,0.4c-0.3,0.1-0.5,0.1-0.8,0.2c0,0.1-0.1,0.2-0.1,0.4c0.1,0.1,0.1,0.1,0.2,0.2
			c0.2,0.1,0.5,0,0.6-0.1c0.2,0.5-0.1,1-0.2,1.3v0.8c-0.3,0.2-0.6,0.2-1.1,0.2c0.1,0.6-0.1,1.1-0.2,1.6c-0.1,0.5,0.1,0.8,0,1.2
			c-0.4,0.1-0.6-0.3-0.8-0.6c-0.2-0.4-0.1-2,0-2.3c-0.3-0.2-0.4-0.6-0.5-0.9h0c-0.4-0.3-0.6,0.1-1.1-0.1c-0.3-0.1-0.5-0.4-0.9-0.4
			c-0.2,0.1-0.3,0.3-0.4,0.4c0.3,0.3,0.6,0.3,0.8,0.7c-0.1,0.7-0.7,0.6-0.7,1.4c0.4,0.4,0.8,1,0.4,1.6c-0.8,1.2-2.1,1.9-2.7,3.2
			c-0.5,1.1-0.3,2.4-0.7,3.6c-0.2,0.7-0.4,1.3-0.7,2c-0.1,0.4,0.1,0.7,0,1c0.2-0.1,0.4-0.1,0.7-0.2c-0.2,1-0.6,1.6-0.9,2.3l0.2,0.3
			l0.1,0c0.6-0.7,1.6-1.5,1.9-2.6c0.1-0.6-0.1-1.1-0.1-1.6c-0.1-0.5,0.2-4.2,0.4-4.6c0.4-0.9,2.1-1.6,3.1-2c0.3,0,0.3,0.2,0.5,0.3
			c-0.1,0.5-0.2,1.1-0.1,1.6c0.1,0.1,0.2,0.2,0.4,0.4c-0.6,0.5-1.5,1.4-1.7,2.2c-0.1,0.5,0.4,0.6,0.3,1.2c-0.1,0.8-0.3,1.9-0.5,2.7
			c-0.1,0.3-0.3,0.3-0.5,0.6c-0.2,0.3-0.4,1.5-0.2,1.8c0.1,0.1,0.1,0.1,0.2,0.1c0.4,0.1,0.4-0.3,0.7-0.4c0.3,0,0.6-0.1,0.9-0.1
			L41.8,74c0.1,0.4,0.4,0.9,0.3,1.4C42,75.7,42,76,41.9,76.3c0,0.3,0.1,0.3,0.1,0.5L41.9,77C41.8,77,41.8,77,41.6,77
			c-0.1,0.1-0.2,0.4-0.2,0.6c-0.7,0.2-2.1,0.4-2.7,0.1c-0.1-0.2-0.2-0.5-0.3-0.7c-0.2-0.1-1-0.5-1.2-0.4c-0.1,0.1-0.2,0.1-0.2,0.3
			c0.6,1-0.1,0.8,0,1.6c0.1,0.8,0.3,1.4,0.6,2c-0.3,0.2-0.7,0.4-1,0.6c-0.2,0.3-0.5,0.5-0.7,0.8c-0.3,0.1-0.6,0.2-0.9,0.4
			c-0.6,0.4-1.3,0.9-1.7,1.4c0.1,0.1,0.3,0.3,0.3,0.6c0.5,0.1,0.4-0.6,0.8-0.8c0.4-0.2,0.8,0.2,1.1-0.2c0,0,0.1-0.1,0.1-0.1
			c0,0,0,0,0-0.1c0.3,0,0.4,0.2,0.6-0.1c0.6,0,0.7,0.4,1.2,0.3c0.9,1,0.6,1.2,0.4,2.5c0,0,0,0,0,0.1c0.8,0.6,0.6-0.8,0.9-1.3
			c0.1-0.2,0.4-0.2,0.5-0.3c0.3-0.5,0.4-1.3,0.7-1.9c0.5,0.2,0.8,0.6,1.4,0.7c-0.2,0.4-0.5,1-0.4,1.5c0,0.3,0.1,0.5,0.1,0.8
			c-0.1,0.3-0.4,1-0.1,1.4c0.5,0.7,1.1,1.5,1.3,2.5c0.2,0.8-0.4,1.1-1,1.1c-0.1,1.6-0.6,3.1-0.1,4.6c0.2,0.3,0.4,0.6,0.6,0.9
			c0,0,0.1,0.1,0.1,0.1c0.3-0.6,0.5-1.3,0.8-1.9c-0.3,0.1-0.9,0.2-1.3,0.3c0.3-0.4,0.8-0.3,1.3-0.5c0.2-0.1,0.3-0.5,0.4-0.7
			c0.3-0.3,0.6-0.6,1-0.9c0.2-0.3,0.4-0.5,0.6-0.8c0.4-0.3,1-0.3,1.3-0.7c0.3-0.4,0.4-0.8,0.6-1.3c0.3-0.5,1.1-1.2,1.7-1.5
			c0.4,1-0.8,1.7-1.1,2.1c-0.1,0.4-0.2,0.8-0.4,1.1c-0.3,0.4-1,0.9-1.4,1.3c-0.1,0.3-0.2,0.5-0.3,0.8c-0.3,0.1-0.5,0.2-0.8,0.3
			c-0.6,0.8-1.1,1.7-1.7,2.5c-0.1,0.4-0.2,0.8-0.3,1.2c-0.1,0.2-0.3,0.4-0.3,0.6c0,0.2,0,0.5,0,0.7c-0.3,1.7,0.4,2.9,0.7,4.3
			c0,0.4,0.1,0.7,0.1,1.1c0.1,0.6,0.5,1.4,0.4,2.1c-0.2,1.2-0.8,1.9-1.2,2.9c-0.3,0.7-0.5,1.5-0.7,2.3c-0.2,0.6-0.5,1.1-0.5,1.9h0.5
			c0.6,0.4-0.4,1.4-0.2,2.1c0.1,0.1,0.1,0.3,0.2,0.4c0.1,0.4-0.3,0.9-0.1,1.4c0.2,0.6,0.4,1.3,0.7,1.9c0.2,0.9-0.5,2.3-0.6,3
			c0.1,0.1,0.1,0.2,0.2,0.4c0.2,0,0.3,0.1,0.5,0.1c0.1,0,0.1-0.1,0.2-0.1c0.1-0.3,0-0.7,0.1-1c0.2,0,0.4,0.1,0.7,0
			c0.1,0,0.2-0.2,0.4-0.2c0.2,0.4,0.3,0.7,0.5,1.1c0.3,0.2,0.7,0.2,1.1,0.3c0.1,0.1,0.2,0.2,0.2,0.4c-0.1,0.1-0.1,0.2-0.2,0.3
			c-0.7,0.3-2.4-0.4-3.4-0.2c-0.2,0.3,0,0.7-0.1,1.1c-0.4,1.5-1.1,1.4-2.8,1.4c-0.2,0.2-0.5,0.5-0.8,0.7c-0.7-0.6-0.4-2.1-0.6-3
			c-0.2-0.2-0.4-0.2-0.7-0.1l-0.6-1.2c-0.1-0.4,0.1-0.8,0-1.1c-0.4-0.2-0.7-0.1-1.1,0c-0.1,0.1-0.4,1.5-0.4,1.7
			c0.1,0.2,0.2,0.4,0.3,0.6c0,0.2,0,0.4,0,0.6c0.1,0.4,0.7,0.5,0.8,0.9c0.6,2.5-2.1,5.4-3.5,6c-0.1,0.2,0.1,0.6,0.4,0.8
			c1.2,0,2-1.9,3-2.4c0.1-0.4-0.2-0.7-0.1-1.1c0.2-0.7,0.8-1.3,1.7-1.3c0.1,0.1,0.2,0.3,0.3,0.4c0.2,0.1,0.4,0.2,0.6,0.3
			c0.4,0.5,0.6,2.1,0.4,2.8c-0.5,0.3-1,0.8-1.6,1c0,0.1-0.1,0.2-0.1,0.3c0,0,0,0.1,0.1,0.1c0.1,0.1,0.3,0.2,0.5,0.2
			c0.1,0.5-1,2.5-0.8,3c0.2,0.3,0.3,0.5,0.5,0.8c0.9,0,1.3-1.3,1.4-2.2c-0.2-0.2-0.3-0.3-0.5-0.5v-0.1c0.9-0.7,1.3-0.8,1.7-2v-0.6
			c0.1-0.3,0.3-0.2,0.3-0.6c-0.1-0.2-0.3-0.3-0.4-0.5c0.2-0.4,0.5-0.9,1-1.1c0.2,0.2,0.3,0.5,0.3,0.8c0.1,0,0.2,0,0.4,0
			c0.1,0.2,0.1,0.5,0.2,0.7c0.1,0,0.2,0,0.4,0c0.3,0.6,0,1.8,0,2.5c0.4,0.3,0.8,0.5,1.1,0.9c0.1,0.6-0.4,0.9-0.1,1.3v0.1
			c0.3,0,0.4,0,0.7,0.1c0.3-0.3,0.8-0.6,0.9-1.1c-0.2-0.2-0.4-0.4-0.6-0.6c0-0.6,0.1-1.1,0.1-1.9c0,0,0,0,0,0l0.2,0
			c0.2,0.3,0.2,1,0.7,0.9c0.1-0.1,0.5-1.6,0.4-1.6c-0.1-0.2-0.4-0.4-0.3-0.8c0.1-0.3,0.4-0.4,0.4-0.7c0.2-0.5-0.3-0.9-0.3-1.3
			c-0.4,0-0.5,0.1-0.9,0.2c0-1,0.5-1.3,1-1.9c0.2-0.3,0.2-0.7,0.4-1c0.4,0,0.8,0.3,1.2,0.2c0.6-0.2,1.1-1.6,1.1-2.4
			c0.1,0,0.2,0,0.3,0c0.3,1-0.1,2.1-0.3,3c0,0.5,0.7,0.9,1.1,1.1c0.5,0.3,1.1,0.8,1.8,1c0.5,0.1,2.7-1,3.1-1.1
			c0.4,0,0.8,0.1,1.2,0.1c0.4-0.1,1.6-0.6,1.9,0.1c0.4,0,1.2,0.2,1.4,0c0.2-0.1,0.1-0.3,0.1-0.5c0.1,0,0.1,0,0.2,0
			c0.1-0.1,0.1,0,0.1-0.2c0.2-0.2,0.7-0.1,1-0.3c0.3-0.1,0.4-0.4,0.6-0.6c0.2-0.1,0.5-0.2,0.7-0.4c0.2-0.1,0.8-0.9,0.9-1.1
			c0-0.9-0.5-0.7-0.5-1.8c0-0.1,0.1-0.1,0.1-0.2c1,0.5,0.3,1.6,2.1,1.6c0.3,0,0.5,0,0.8,0c1.4-0.3,0.8-1.1,1.3-1.5
			c0.2-0.1,0.3-0.1,0.5-0.2c0.2-0.1,0.1-0.4,0.2-0.6c0.1-0.1,0.3-0.1,0.4-0.2c0.2-0.1,0.5-0.5,0.7-0.7c0.7-1,1.5-3.2,1.1-4.6
			c-0.6-0.4-1,0-1.6-0.1c-0.3-0.1-1-0.5-1.1-0.7c-0.2-0.2-0.1-0.5-0.3-0.7c-0.1-0.2-0.3,0-0.5-0.1c-0.1-0.2-0.3-0.3-0.4-0.5
			c0-0.1,0-0.1,0-0.2c0.4-0.2,0.8-0.6,1.1-0.7c0.4,0,0.8,0,1.2,0.1c1-0.2,1.8-0.9,2-1.9c0.7-0.4,2.4-0.6,2.5-1.5
			c1.3,0,2.3-0.9,2.4-2c-0.1,0-0.2-0.1-0.4-0.1c0.1-0.9,1.6-1.4,2.3-0.8c0.3-0.1,0.4-0.2,0.8-0.3l0,0l-0.1-0.3c0,0,0,0,0-0.1
			c0.1,0.1,0.2,0.1,0.3,0.3h0c0.1-0.1,0.1-0.1,0.1-0.4c-0.3-0.3-0.9-0.2-1.2-0.5c-0.7-0.5-0.6-1.7-1.1-2.5c-0.3-0.5-0.8-0.6-0.9-1.3
			h3c1.2,0.4,1.8,2.7,1.8,4.3c1.5-0.3,1.4-2,1-3.4c0.4-0.4,0.5-0.7,1.3-0.6c0-0.4-0.1-0.8,0-1.2c0.1,0,0.1-0.1,0.2-0.1
			c0.3,0.5,0.2,1,0.4,1.6c0.1,0.4,0.4,0.6,0.5,0.9c0.2-0.1,0.2-0.2,0.3-0.5c0.3-0.4,0.7-0.2,1.1-0.1c0.2-0.8-0.3-1.8,0.2-2.3
			c0.4-0.4,1.4-0.4,1.7-0.9c0.3,0.1,0.3,0.2,0.5,0.4c0.1,0.1,0.4,0,0.5,0.1c0.2,0.1,0.2,0.3,0.4,0.4c0.2,0.1,0.4,0,0.5-0.1
			c0.2-0.3,0.1-0.9,0.3-1.4c-0.2-0.2-0.2-0.3-0.5-0.3c0.1-0.2,0.2-0.5,0.4-0.7c0.4-1.4,0.4-4.3,2.1-4.3c0.2-0.6,0.6-0.9,0.9-1.5
			c-0.5-0.3-0.8-1.1-0.5-1.9c1-0.6,0.9,0.8,1.4,1.1c0.2,0,0.4,0,0.6-0.1c-0.1-1.1,0.2-1.4-0.7-1.9C91,88.6,91,88.6,91,88.4
			c0.3-0.3,0.5-0.6,0.8-0.9c-0.3-0.4-0.6-0.7-0.9-1.1c0,0,0,0-0.1-0.1c0.3-0.3,0.6-0.3,0.7-0.7c0.2,0,0.4,0,0.7,0
			c0.2-0.1,1.1-1.3,1.2-1.5c0.2,0,0.4-0.1,0.6-0.1h0c0,0.1,0,0.2,0,0.3c-0.2,0.2-0.3,0.3-0.5,0.5c0.2,0.1,0.4,0.2,0.6,0.3
			c0.1,0.2,0.1,0.4,0.2,0.7c0.5,0.7,1.9,1.1,2.8,1.3v-0.1c0-0.2,0.1-0.3,0.1-0.5c0.4,0.1,0.7,0.1,1.1,0.2c0.1,0,0.1,0,0.2-0.1
			c0.2-0.1,0.3-0.5,0.6-0.6c0.2-0.1,0.4-0.1,0.7-0.2c0,0,0,0,0,0h0c0-0.1,0-0.3,0-0.4c-0.2-0.2-0.3-0.3-0.7-0.3
			c-0.2,0.2-0.5,0.5-0.7,0.7c-0.5,0.2-1-0.1-1.4,0.1c-0.3-0.4-1-0.6-1.6-0.7c0-0.1,0-0.2-0.1-0.3c0-0.2,0-0.1,0.1-0.2
			c0.2-0.1,1.2-0.3,1.4-0.3c0.2-0.4,0.5-0.9,0.4-1.6c-0.1-0.3-0.2-0.8-0.1-1.1c0.1-0.3,0.4-0.2,0.6-0.4c0.2-0.3,0.3-0.7,0.6-1
			c0-0.5-0.3-0.8-0.1-1.4c0.2-0.7,0.8-0.9,0.8-1.8c0,0,0,0,0,0c-0.2,0-0.2,0.1-0.4,0.2c-0.1-0.1-0.2-0.3-0.4-0.4c-0.1,0-0.2,0-0.3,0
			c-0.3,0.3-0.3,0.6-0.5,1c-0.1,0.1-0.1,0.1-0.2,0.2l-0.2,0c-0.1,0-0.5-0.8-0.5-0.9c0-0.1,0-0.1,0.1-0.1c0.1,0,0.3-0.1,0.4-0.1
			c0.1-0.4,0.1-1.5,0.5-1.7c0.4-0.4,1.2-0.3,1.7-0.6c1-0.6,1.8-1.6,3-2c0.7-0.3,2.1-0.5,2.3-1.1c0.1-0.1,0.2-0.2,0.3-0.3
			c-0.3-0.3-0.5-0.6-0.9-0.8c-0.8,0.1-1.5,0.6-2.3,0.1v-0.1c0.3-0.4,1.1-0.7,1.7-0.8c0.2,0.1,0.4,0.4,0.8,0.3
			c0.5-0.1,0.8-0.5,1.2-0.6c0.1-0.1,0.3,0,0.5,0.1c0.2-0.7,0.6-2.1,1.1-2.7c0.6-0.6,1.5,0,2-1.1c0.1-0.1,0.1-0.1,0.1-0.2
			C108.5,65.2,107.8,65.6,107.4,65.9z"/>
	</g>
</g>
</svg>
