<?xml version="1.0" encoding="utf-8"?>
<!-- Generator: Adobe Illustrator 25.2.0, SVG Export Plug-In . SVG Version: 6.00 Build 0)  -->
<svg version="1.1" id="Camada_1" xmlns="http://www.w3.org/2000/svg" xmlns:xlink="http://www.w3.org/1999/xlink" x="0px" y="0px"
	 viewBox="0 0 137 158" style="enable-background:new 0 0 137 158;" xml:space="preserve">
<style type="text/css">
	.st0{fill:#D9E76E;}
</style>
<g id="Forma_1_5_">
	<g>
		<path class="st0" d="M114.2,21.7l-0.2-0.5h-1.4V21h-2.8c-0.2-0.2-0.3-0.5-0.5-0.7h-0.7V20c-0.4-0.1-0.8-0.2-1.2-0.2v-0.2
			c-0.7-0.2-1.4-0.3-2.1-0.5V20h-0.2v-0.7h-0.5c0.1,0.2,0.2,0.5,0.2,0.7c-1.1,0.6-1.6,1.6-2.6,2.1c0.2,0.6,0.1,0.4,0.5,0.7
			c0,1.2-0.1,0.9-0.5,1.7h-0.5v-0.7h-0.5c-0.1,0.5,0,0.2-0.2,0.5v0.2h-0.2l0.2-0.5c-0.3,0.1-0.6,0.2-0.9,0.2
			c-0.2,0.5-0.3,0.9-0.5,1.4H99v0.7h0.2v1.4c-0.2,0.2-0.5,0.3-0.7,0.5v0.7h-0.2c-0.2,0.3-0.2,1-0.5,1.2h-0.5
			c-0.4,0.2-0.5,0.4-0.7,0.7c-1.3-0.1-1.7-0.5-2.6-0.9c-0.2,0.3,0,0-0.2,0.2c0.1,0.6,0.2,1.3,0.2,1.9h0.2c-0.1,0.3-0.2,0.6-0.2,0.9
			c-0.5,0.1-2.4,2.1-2.6,2.6c-0.6,0-0.8-0.1-1.2-0.2V35h-0.7c-0.1-0.2-0.2-0.3-0.2-0.5c-0.3,0.1-0.5,0.3-0.7,0.5h-0.2V34
			c-0.6,0.3-1.3,0.6-1.7,1.2c-1,0-1.3-0.3-1.7-0.9c-0.9,0-2,0.6-2.4,0.5c-0.1-0.2-0.2-0.3-0.2-0.5h-1.4c-0.1,0.5,0,0.2-0.2,0.5
			c0.3,0.3,0,0.1,0.5,0.2c-0.1,0.2-0.2,0.5-0.2,0.7c0.4,0.2,0.5,0.3,0.7,0.7h0.7v0.9h-0.7c-0.2-0.6-0.1-0.5-0.7-0.7V39
			c0.2,0.7,0.8,1.5,0.9,2.4h-0.5c0.1,0.8,0.4,1.4,0,2.1c-0.3,0.2-0.6,0.5-0.9,0.7V45h-0.2c-0.2,0.6-0.3,1.3-0.5,1.9
			c-0.2,0.1-0.3,0.2-0.5,0.2c-0.2-0.3,0,0-0.2-0.2c0.1-1.3,0.8-2.3,1.2-3.3v-0.9h0.2c-0.1-0.8,0-0.8-0.7-0.9v0.7h-0.2
			c-0.1,0.5,0,0.2-0.2,0.5v0.2c-0.4,0.1-0.8,0.2-1.2,0.2v0.5c0.1,0.2,0.7,0,0.5,0.9h-0.2c-0.1,0.9-0.2,1.9-0.2,2.8h0.2v0.9h0.2V49
			h0.2c0.4,1.1-0.4,2.8,0.2,3.6c0,1.5-0.4,1.5-0.9,2.4h-0.5c0.1-1.8,0.2-3.2-1.2-3.6c0-0.9-0.2-1.3-0.7-1.7v-0.2h-0.2
			c-0.1,0.3-0.2,0.6-0.2,0.9H75c-0.2,0.4-0.5,0.8-0.7,1.2h-0.5c-0.1,0.4-0.2,0.8-0.2,1.2c-1,0.2-1.7,0.9-1.9,1.9h-0.5
			c-0.4,1.2-0.8,2.4-1.2,3.6l-0.5,0.2v0.7h-0.2v0.5h-0.2v1.2h-0.2v0.2c-0.3,0.2-0.6-0.6-0.7-0.7h-0.5v-0.2c-0.6-0.3-1.2,0-1.7-0.2
			c-0.1-0.2-0.2-0.3-0.2-0.5c-0.8-0.3-1.1,0.4-1.2,0.5h-0.5c0.1,0.6,0.3,0.5,0.5,0.9c0.7,0.2,0.1,0.1,0.7,0c0.2,0.3,0,0,0.2,0.2
			c-0.2,0.8-0.4,1-0.7,1.7h-0.2c0.1,0.3,0.2,0.6,0.2,0.9c-0.5-0.3-0.5-0.5-1.2-0.7v0.7h-0.2v0.2c-0.9-0.1-1-0.4-1.2-1.2L61.5,63
			c0,1.3,0.5,1.2,0.7,2.1c1.5,0.2,0.7,0.6,1.4,1.2h0.5v0.2c0.3,0.2,0.5,0.2,0.7,0.5c-0.5-0.1-0.9-0.2-1.4-0.2v0.7h0.2V68
			c-0.4-0.1-0.6-0.2-1.2-0.2c0,0.6,0,0.8,0.2,1.2h0.2c-0.1,1.1-0.2,2.2-0.2,3.3h-0.2c-0.1,0.2-0.2,0.5-0.2,0.7l-0.5,0.2
			c-0.1,0.2,0.4,1.4,0.5,1.9h-0.5c-0.2,0.9-0.5,1-0.5,2.4c-0.4-0.1-0.8-0.2-1.2-0.2V77h-0.5c-0.1-0.2-0.2-0.3-0.2-0.5h-0.7v-0.2
			h-0.5V76c-0.5,0.1-0.9,0.2-1.4,0.2V76c-1.1,0.2-2.2,0.5-3.3,0.7V77h-0.5v0.2C52.4,77.4,52.3,77,52,77v0.2
			c-0.5,0.1-0.9,0.2-1.4,0.2v-0.9h-0.5c-0.2,0.6-0.1,0.5-0.7,0.7v0.2c-0.6,0.2-0.7-0.6-0.9-0.7c-0.2-0.1-0.7-0.1-0.9-0.2
			c0.1-0.9,0.3-0.7,0.5-1.4h-0.2v-0.2h-0.5v0.2l-0.5,0.2c-0.6,0.8,0,1.1-1.2,1.4V77c-0.4,0.2-0.3-0.1-0.5-0.2h-0.2
			c0.2-0.6,0.7-0.9,0.9-1.4v-0.5c0.2-0.2,0.5-0.3,0.7-0.5v-0.5h0.2c0.1-0.5,0.2-0.9,0.2-1.4c0.5-0.1,0.2,0,0.5-0.2
			c-0.2-0.1-0.5-0.2-0.7-0.2c-0.5,1-0.9,2.1-1.9,2.6v0.2h-0.2c-0.7-0.8,0.2-1.5-1.4-0.9C43.1,73.6,43,73.5,43,73h-0.5
			c-0.1-0.2-0.2-0.5-0.2-0.7h0.2c0.1-0.3,0.2-0.6,0.2-0.9c-0.2-0.1-0.3-0.2-0.5-0.2v-0.2c-0.4,0.2-0.7,0.2-1.4,0.2v-1.4
			c-0.5-0.1-0.2,0-0.5-0.2c-1.2,0.1-1,0.5-1.9,0.7c0,1.3-0.1,1.7-0.9,2.1c0,1.2,0.3,1.7,0.5,2.6c-1.4,0.4-1.4,1.6-3.3,1.7v1.2h-0.2
			v0.2c-0.7,0-1-0.1-1.4-0.2v-0.9h0.5v-0.9c-0.4,0.1-0.8,0.2-1.2,0.2c0-0.8,0.1-1.1,0.5-1.4v-0.5c-0.1,0.1-0.5,0.5-0.5,0.5
			c-0.8,0.3-1.1-0.4-1.2-0.5h-1.2V73c0.2-0.1,0.5-0.2,0.7-0.2c-0.1-0.6-0.2-1.1-0.2-1.7c-0.8-0.2-1.2-0.5-1.9-0.7
			c-0.1-0.5-0.2-0.5-0.2-0.5v-1.2H28v-0.5h-0.2v-0.7h-0.2V67c-0.1-0.1-0.3-0.2-0.5-0.5c-0.6,0.1-1.3,0.2-1.9,0.2v-0.2
			c-0.3-0.1-1.2-0.4-1.7-0.2c-0.1,0.2-0.2,0.3-0.2,0.5c-0.4,0.1-0.4-0.2-0.5-0.2c-0.7-0.1-1.5,0.1-1.9,0.2V67h-0.9v0.2h-0.5
			c0.1,0.2,0.2,0.5,0.2,0.7h0.2c0,0.3-0.2-0.1-0.2,0.2v0.7h-0.2v0.2h0.2c-0.1,0.3-0.2,0.6-0.2,0.9H19v0.7h0.2v0.2
			c0.5-0.2,0.6-0.4,1.2-0.5c-0.2,0.8-1.6,2.9-1.2,3.8c0.2,0.1,0.3,0.2,0.5,0.2c0.4,0.5,0.4,1,0.5,1.9l0.7-0.2v0.2
			c0.4,0.2,0.4,0.2,0.9,0.2c0.1,0.7,0,0.7,0.5,0.9c-0.3,1.1-0.6,0.8-1.7,0.7c-0.2,0.3,0,0-0.2,0.2c0.3,0.9,0.5,0.5,0.9,1.2h0.2v1.7
			l0.5,0.2v0.5l0.5,0.2c0.7,1,1.1,2.3,2.4,2.6v0.2h1.2c1.6,0.5,1.6-0.3,2.8-0.7c0.3-1.1,0.9-1.5,0.9-2.8c0.5-0.1,0.2,0,0.5-0.2
			c0.6-0.2,0.5-0.1,0.7-0.7c0.2-0.1,0.5-0.2,0.7-0.2v-0.2h0.7v-0.2c1-0.3,1.6,0.2,2.4-0.5c1.4,0.1,1.1,0.6,1.9,1.2
			c-0.2,1.3-0.7,2.5-0.7,4l-0.7,0.2c-0.1-0.5,0-0.2-0.2-0.5v-0.2h-0.7v1.4h0.5v0.7c-1.6,0-1.6,0.1-2.1,1.2h-0.5v1.4h0.5v0.5
			c-0.8,0.1-0.7,0.2-1.2,0.5v0.2c0.2,0.1,0.5,0.2,0.7,0.2V91h0.5c0.1,0.2,0.2,0.3,0.2,0.5c0.3-0.1,0.6-0.2,0.9-0.2
			c0.1-0.4,0.2-0.8,0.2-1.2c0.9,0.6,0.2,1,1.4,0.7v0.7c0.5-0.1,0.9-0.2,1.4-0.2v-0.7c0.5-0.1,0.6-0.2,0.9-0.5v-0.2h0.7
			c0.1-0.2,0.2-0.3,0.2-0.5h0.2v-0.5c0.2-0.2,0.5-0.3,0.7-0.5c0.2-0.3,0,0,0.2-0.2c0.4,0.8,1,1.6,1.2,2.6c0.4-0.2,0.8-0.5,1.2-0.7
			v0.2H43c-0.1,0.3-0.2,0.6-0.2,0.9H43c0.1,0.4,0.2,0.8,0.2,1.2c0.9,0.1,0.7,0.1,1.7-0.2c0.2,0.7,0.5,1.4,0.7,2.1h-0.9
			c0.1,0.9,0.1,0.5,0,1.4h0.9v1.7c-0.2,0.1-0.5,0.2-0.7,0.2c0.1,0.5,0,0.6,0.2,0.9h0.2c-0.1,0.7-0.2,1.4-0.2,2.1
			c0.2,0.1,0.5,0.2,0.7,0.2c-0.1,0.4-0.2,0.8-0.2,1.2c-0.4-0.2-0.7-0.5-0.9-0.9h-0.2c0,0.5-0.2,0.4-0.2,0.5c0.1,0.5,0.3,0.2,0.7,0.5
			c0.2,0.1,0.1,0.3,0.5,0.5l-0.2,0.7c-0.2,0.1-0.3,0.2-0.5,0.2c-0.2,0.5,0.2,1.3,0.2,1.7h0.2c0,0.4-0.4,0.3-0.5,0.5
			c-0.5,1.2,0.3,1.6-0.5,2.4v0.2h-0.7c0.1,0.2,0.2,0.5,0.2,0.7h-0.2v0.5c-0.2,0.2-0.5,0.3-0.7,0.5c-0.1,0.4-0.2,0.8-0.2,1.2
			c-0.3,0.1-0.6,0.2-0.9,0.2c-0.2,0.6-0.3,0.5-0.5,1.2h0.5v0.5h-0.9v-0.5h-0.7v-1.2h-0.7v0.2h-0.2v-0.9h0.5v-0.5
			c-0.5-0.1-0.2,0-0.5-0.2h-0.7v0.2H38c0.1,0.3,0.4,0.9,0.2,1.4H38c-0.1,0.4-0.2,0.8-0.2,1.2h-0.2c-0.1-0.2-0.2-0.5-0.2-0.7
			c-0.2,0.1-0.5,0.2-0.7,0.2v-0.5c0.7-0.3,0.3,0,0.2-0.7h-0.5c-0.2-1.6-0.9-0.9-1.7-1.7c-1.1,0.2-0.9,0.7-1.7,1.2v1.7
			c0.4-0.1,0.8-0.2,1.2-0.2c-0.1,0.5-0.2,0.7-0.5,0.9v0.2c-0.2-0.1-0.3-0.2-0.5-0.2v0.2c-0.5,0.3-0.6,0.6-0.9,0.9v0.7h0.2
			c0.5,0.6,0.6,0.1,0.7,1.2h-0.7c-0.1,0.7-0.4,1.2-0.5,1.4c0.1,0.2,0.2,0.3,0.2,0.5c-0.3,0.2-0.8-0.1-0.9,0.2
			c-0.3,0.5,0.3,0.7,0.2,0.9h-0.2c0,1,0,2,0.2,2.6c0.7,0.2,1.4,0.5,2.1,0.7c0.3,0.1,0,0,0.2-0.2c0.4,0,0.5,0.2,0.5,0.2
			c0.2-0.1,0.5-0.2,0.7-0.2v0.2h0.7c0.3,0.1-0.1,0.2,0.2,0.2v-0.2h0.5v-0.2c0.2,0.1,0.3,0.2,0.5,0.2v-0.2c0.4-0.3,0.3-0.1,0.5-0.7
			h0.7c0.1,0.2,0.2,0.5,0.2,0.7c0.7,0.1,1.6,0.3,2.6,0.2c0.3,1,1,1.5,1.2,2.4H43c-0.2-0.7-0.3-0.5,0-1.2c0.7-0.3,1.1-0.6,1.9-0.7
			c-0.1-0.5,0-0.2-0.2-0.5v-0.2c0.6,0.2,0.7,0.4,1.2,0.7v0.2h0.9v-0.7c-0.7-0.3-1.1-0.6-1.7-0.9v-1.4h0.9v0.5
			c0.5,0.1,0.9,0.2,1.4,0.2c0.2-0.5,0.3-1.3,0.7-1.7c0.3-0.1-0.1-0.3,0.2-0.2c0.1,0.2,0.2,0.3,0.2,0.5c0.5,0.3,1.1,0.2,1.9,0.2
			c0.3,1,1,1.2,1.9,1.7v0.2h0.9v0.2c0.4,0.2,1.4,0.4,2.1,0.2v-0.2h0.9v-0.2h0.7v-0.2h0.7v-0.2h0.2v0.2h0.2c0.5-1,1.4-1.8,1.7-2.8
			h0.5c0.1-1.2,1.4-3.3,2.1-3.8c-0.3-0.4-0.5-0.4-1.2-0.5V114c0.5,0.1,0.9,0.2,1.4,0.2v-0.5h0.5c0.1-0.6,0.3-0.5,0.5-0.9
			c0.4-0.4,0.2-0.1-0.2-0.5v-0.2c0.2,0.1,0.5,0.2,0.7,0.2v-0.5H65v-0.2c0.5-0.1,0.2,0,0.5-0.2h0.2v-0.7h-0.5
			c0.1-0.6,0.2-1.3,0.2-1.9c0.2-0.2,0.5-0.3,0.7-0.5v-0.5l0.5-0.2c0.3-0.4,0-0.5,0.5-0.9c0-0.9,0-1-0.7-1.2c-0.3-1-1-1.5-1.2-2.4
			c0.8,0.2,0.8,0.8,1.4,1.2v0.5h1.2c-0.3-1-0.7-0.6-1.2-1.2h-0.2v-0.2c0.8,0.2,1,0.5,2.1,0.5v-0.5c-0.6-0.2-0.5-0.1-0.7-0.7h1.2
			c0.1-0.2,0.2-0.5,0.2-0.7c0.4-0.2,0.8-0.5,1.2-0.7c0.2,0.5,0.3,0.9,0.5,1.4c0.3,0.1,0.6,0.2,0.9,0.2v0.2c0.3-0.1,0.6-0.2,0.9-0.2
			v-1.2h0.2c0.2-0.6,0.1-0.5,0.7-0.7c0.1,0.6,0.2,1.1,0.2,1.7h-0.5c0.2,0.3,0.5,0.6,0.7,0.9c0.8-0.2,0.9-0.5,1.2-1.2h0.2
			c-0.2-0.5-0.3-0.9-0.5-1.4h0.2v-0.5h0.2v0.9H76c0.3,0.3,0,0.1,0.5,0.2c0.3-0.3,0-0.1,0.5-0.2c-0.2-0.2-0.3-0.5-0.5-0.7
			c0.2-0.2,0.5-0.3,0.7-0.5c0.3-0.3,0-0.1,0.5-0.2c0.3,0.3,0,0.1,0.5,0.2c0.2,1.1,1.1,1.6,2.1,1.2c-0.1,0.4-0.2,0.4-0.2,0.9
			c-0.2,0.1-0.5,0.2-0.7,0.2v0.5c0.4,0.1,0.8,0.2,1.2,0.2c0.1,0.2,0.2,0.3,0.2,0.5h0.5v0.2c0.2,0.1,0.5,0.2,0.7,0.2v1.2
			c-0.6-0.5-0.7-1.2-1.7-1.4v-0.5c-0.9,0.2-0.8,0.2-1.7,0v-0.5c-0.9,0.1-0.7,0.3-1.4,0.5l0.2-0.9h-0.7v0.5c-0.6,0.5-1.3,0.9-1.9,1.4
			c0.3,0.5,0.4,0.5,1.2,0.5c-0.6,0.6-2.3,0.1-3.1,0v-0.2c0.9-0.3,0.4-0.2,1.2,0.2c0.1-0.4,0.2-0.6,0.2-1.2c-0.5-0.1-0.2,0-0.5-0.2
			c-0.7,0-1,0.1-1.4,0.2v0.9h0.2v0.2h-0.2v-0.2c-0.7,0.3-0.3,0-0.2,0.7h-0.2c-0.2-0.4-0.4-0.6-0.5-1.2c-0.2-0.1-0.5-0.2-0.7-0.2v0.5
			c-0.7,0.2-0.7,0.4-1.2,0.7v0.9h-0.9v0.2h-0.2c0.3,0.7,0,0.9,0,1.9c-1.2,0-1.5,0.2-1.7,1.2c0.5,0.1,0.9,0.2,1.4,0.2
			c0.4-0.1,1.4-0.9,2.4-0.5c0.1,0.2,0.2,0.3,0.2,0.5h0.5v0.2c0.7,0.3,1.4-0.2,1.9-0.2c0-0.8,0-0.9-0.5-1.2v-0.2
			c1.9,0.2,0.6,0.9,1.2,1.7v0.2h0.7c0.1-0.5,0-0.2,0.2-0.5v-0.2H75v1.2c-0.2,0.1-0.3,0.2-0.5,0.2v0.2h0.2v0.7H75v0.9
			c0.2,0.1,0.3,0.2,0.5,0.2v0.2h-0.2v0.2H75c-0.3-0.6-0.6-1.4-1.2-1.7h-0.7v-0.2h-0.5c-0.1-0.1-0.2-0.3-0.5-0.5
			c-0.2,0.3-0.7,0.9-0.9,1.2v0.2l-0.5-0.2v0.2h-0.5v0.5h-0.7c-0.1,0.2-0.2,0.5-0.2,0.7h0.2v0.5c0.6-0.2,0.5-0.1,0.7-0.7h0.5
			c0.1,0.5,0,0.2,0.2,0.5v0.2c0.9,0.1,1.9,0.2,2.8,0.2c0,0,0.4,0.6,0.7,0.7c0.1-0.4,0.2-0.4,0.2-0.9c1.2,0.3,0.6,0.6,0.9,0.9v0.2H76
			v-0.2c0.4-0.2,0.4-0.5,0.7-0.7c-0.1-0.8,0-0.8-0.7-0.9v-1.7h0.5v1.2h0.2v0.2c0.3-0.2,0.4-0.2,0.9-0.2c0.2,0.8,0.5,1.6,0.7,2.4
			c0.4,0.7,0.8,0.2,0.9,1.4c-0.5,0.1-0.2,0-0.5,0.2h-0.2c0.1,0.5,0.2,0.9,0.2,1.4h-0.2v-0.7h-1.2c-0.1-0.5,0-0.2-0.2-0.5
			c-0.3-0.3,0-0.1-0.5-0.2c-0.4,0.8-0.9,1.4-0.9,2.6h0.7v0.5h0.7v0.2c0.5,0.4,0.1,0.5,0.9,0.7c0.2,0.8,0.9,1.5,1.7,1.7v0.2
			c-0.2,0.1-0.5,0.2-0.7,0.2c-0.2,0.5-0.3,0.9-0.5,1.4h-0.5c-0.1-0.4-0.2-0.8-0.2-1.2h-0.2v-1.2c-0.2-0.2-0.5-0.3-0.7-0.5
			c-0.3-0.4,0-0.5-0.5-0.9c-0.4-0.3-1,0.1-1.7,0.2c-0.2,0.9-0.4,0.5-0.5,1.7h0.9v0.5c-1.5,0.1-0.4,0.3-1.4-0.5
			c-0.1,0.3-0.2,0.6-0.2,0.9c-0.2-0.1-0.5-0.2-0.7-0.2v0.2h-0.9v-0.2h-0.5v-0.2H70V123h-0.5v-0.2c-0.8,0.1-1.6,0.2-2.4,0.2v-0.2
			c-0.4-0.2-0.6-0.2-1.2-0.2c0.1-0.4,0.2-0.6,0.2-1.2c-1,0.1-1.2,0.6-1.9,0.9c0.1,1,0.1,0.8,0.2,1.7c0.4,0.1,0.8,0.2,1.2,0.2
			c0.1,0,0.1-0.6,0.7-0.5l0.2,0.5h1.2l0.5,0.7c1.5,0.1,3,0.2,4.5,0.2v-0.2h0.9v0.2c0.5,0.3,0.5,0.5,1.2,0.7v2.8c0,0,0.3,0.1,0.2,0.7
			c-0.2,0.2-0.3,0.5-0.5,0.7H75v0.5c-0.4,0.1-1.6,0.2-1.9,0.5h-0.2v0.7h0.5l-0.2,0.7h-0.9v-0.7h-0.7l-0.5,0.7
			c-0.4,0.1-0.8,0.2-1.2,0.2v0.2h-0.2v0.2h0.7v0.5c-0.5-0.1-0.2,0-0.5-0.2c-0.6,0.1-0.6,0.1-0.9,0.2c0.1,0.6,0.1,0.6,0.2,0.9
			c0.5,0.2,0.9,0.3,1.4,0.5c0.2-0.4,0.5-0.8,0.7-1.2h0.7c0.1-0.2,0.2-0.3,0.2-0.5c0.7-0.2,1.4-0.3,2.1-0.5l0.2,0.5
			c1-0.1,1.1-0.3,1.7-0.7v-0.2h0.5v-0.2c0.2-0.1,0.5-0.2,0.7-0.2v-0.9c0.9,0,1.9,0.4,2.4,0H80v-0.2c-0.9-0.2-1.9-0.3-2.8-0.5v-0.5
			c0.5,0.1,0.9,0.2,1.4,0.2v-0.5c0.7,0,1.8-0.1,2.1,0.2c0.7,0,1-0.1,1.4-0.2v-0.9c-0.9,0-1.5,0-1.9,0.5c-1,0-1.3-0.1-1.7-0.7h-0.5
			v-0.2c0.4,0.1,0.8,0.2,1.2,0.2v0.2c0.6-0.1,0.6-0.1,0.9-0.2v-1.2H80v-0.2c-0.4,0.2-0.9,0.2-1.7,0.2v-0.2c0.7-0.3,1.4-0.6,2.1-0.9
			h0.2c-0.1,0.2-0.2,0.5-0.2,0.7h0.5c0.3-1.1,1.2-1.2,2.6-1.2c-0.2-0.7-0.4-0.7-0.7-1.2h0.5c-0.1-0.2-0.2-0.5-0.2-0.7
			c0.8-0.5,0.5-1,0.9-1.7c0.2,0.1,0.3,0.2,0.5,0.2v-0.2c0.5-0.6-0.2-1.1-0.2-2.4h-0.5c0.1-0.5,0-0.2,0.2-0.5V119h0.2v0.7h0.5v-0.5
			H85v0.2l0.7,0.2c0-0.8-0.1-1.1-0.2-1.7H85v-1.2h0.5v0.2c-0.3,0-0.4,0.2-0.2,0.5h0.2v0.2h0.2v-0.7h0.2v0.2h0.5
			c-0.1,0.1-0.7,0.7-0.7,0.7c-0.2,0.7,0.7,0.6,0.5,1.4h-0.2v1.9h-0.2v0.7h-0.2c-0.1,0.2-0.2,0.5-0.2,0.7h0.2l0.2,0.7
			c-1,0.1-0.8,0.3-1.4,0.7v0.7c0.7,0.2,1.4,0.3,2.1,0.5c0.4-0.8,0.8-1.3,1.7-1.7v-3.1h-0.2v-0.5c-0.2-0.1-0.3-0.2-0.5-0.2v-1.4h-0.2
			c-0.2-1.1,1.1-1.9,0.9-2.6h-0.2c-0.2-0.7-0.5-1.4-0.7-2.1h0.5c0.2,0.8,0.9,1.1,1.7,1.2v0.5c0.4,0,1.2-0.2,1.2-0.2v0.2
			c0.5,0.1,0.9,0.2,1.4,0.2v0.5H93v0.2h0.5l-0.2,0.7c1.3-0.1,0.8-0.2,1.4-0.7c0.3,0.4,0.1,0.3,0.7,0.5v-0.5
			c-0.2-0.1-0.3-0.2-0.5-0.2c0.1-0.5,0.2-0.9,0.2-1.4c0.2,0.1,0.5,0.2,0.7,0.2V114c-0.3-0.1-0.6-0.2-0.9-0.2c-0.1-1-0.3-1.1-0.5-1.9
			h0.5c0.1-0.2,0.2-0.3,0.2-0.5h0.7v-0.2h0.2v0.2h0.2v-0.5h0.7v1.2h-0.2c0,0.6,0.1,0.8,0.2,1.2c0.9-0.1,1-0.4,1.9-0.5v-0.2h0.2v-0.9
			h0.2c-0.1-1.3-0.7-1.1-0.9-2.1c-0.7-0.2-0.6-0.4-1.4-0.5v-0.5c0.5,0.2,0.9,0.3,1.4,0.5c0.3-0.7,0-0.3,0.7-0.2
			c0.2,0.7,0.4,0.9,0.7,1.4c1.1,0,2.1-0.1,2.8-0.2h1.7c0.3,0.1-0.1,0.3,0.2,0.2V110c0.6-0.2,0.1-0.1,0.7,0c0.1-0.2,0.2-0.5,0.2-0.7
			h0.2v-1.7h0.2c-0.1-1.8-1.5-1.4-1.9-2.8H104v-1.4c0.6-0.2,0.5-0.1,0.7-0.7c1.2-0.1,1.5-0.8,1.9-1.7h0.2v-1.4
			c0.3,0.2,0.9,0.7,1.2,0.9c0.9,0,1,0,1.2-0.7h-0.7v-0.2h0.5c0.1-0.5,0.2-0.7,0.5-0.9c0.3-0.3,0-0.1,0.5-0.2
			c0.1,0.2,0.2,0.5,0.2,0.7h1.2v-0.2c0.3-0.2,0,0,0.2-0.2h-0.5v-0.5h0.5c-0.1-0.7-0.6-1.3-0.5-1.9h0.2v-0.7h0.2
			c0.1-0.3-0.1,0.1-0.2-0.2c-0.2-0.6-0.2-0.3,0.2-0.7v-0.2h-0.7v-0.5h1.4v-0.5c-0.5-0.1-0.7-0.2-0.9-0.5h-0.2l0.2-0.5h-0.2v-0.5
			h-0.2v-1.2h-0.2c0-1.1,0.2-1.3,0.5-1.9c1.3,0.2,0.5,0.1,0.9,0.9c0.1,0.1,0.3,0.2,0.5,0.5c0.4-0.1,0.8-0.2,1.2-0.2v-0.2h0.2v-0.7
			h-0.2v-0.2H113v0.5h-0.2l-0.2-0.7h0.5c-0.1-0.5-0.2-0.7-0.5-0.9H112c0.1-0.2,0.2-0.3,0.2-0.5h-0.7v-0.7h-0.2v-0.2h-0.2
			c-0.2,0.4-0.2,0.7-0.2,1.4h-0.2v-1.2c-0.2,0.1-0.3,0.2-0.5,0.2c0.1-0.2,0.4-0.5,0.2-0.9h-0.2c-0.2-0.6-0.1-0.5-0.7-0.7v1.2
			c0.2,0.7,0.6,1.1-0.2,1.7c0.2,0.6,0.1,0.5,0.7,0.7l0.2,0.7h-0.2c-0.1,0.5,0,0.2-0.2,0.5V90c-0.7-0.3-0.3,0-0.2-0.7
			c-0.2-0.1-0.5-0.2-0.7-0.2v-1.7h0.2V87h0.2c0.1-0.4-0.5-1.2-0.2-1.9c0.2-0.1,0.3-0.2,0.5-0.2c0.2-0.8,0.3-1.6,0.5-2.4h-0.5
			c-0.2,0.5-0.3,0.9-0.5,1.4c-0.6-0.1-0.6-0.1-0.9-0.2c-0.2,0.5-0.5,1.3-0.9,1.7v0.2h0.7v0.9h-0.2c0.1,0.4,0.2,0.8,0.2,1.2h-0.2
			c0,0,0,0.9-0.2,0.5v-0.5H107v0.7h-0.2c-0.2,0.5,0.3,0.6,0.5,0.7c-0.1,0.2-0.2,0.3-0.2,0.5c-0.2,0.1-0.3,0.2-0.5,0.2
			c-0.1-0.2-0.2-0.3-0.2-0.5c0,0,0.4-0.1,0.2-0.5c-0.2-0.2-0.5-0.3-0.7-0.5v-1.7h-0.2c-0.3-0.4-0.3-0.4-0.5-0.9
			c-0.6,0.2-0.4,0.1-0.7,0.5h-0.2v0.2h0.2c-0.1,0.6-0.2,1.1-0.2,1.7H104c-0.1,0.2-0.2,0.3-0.2,0.5h-0.5c0,0,0.7,1-0.2,1.7v0.2
			c-0.3-0.3-0.1,0-0.2-0.5h-0.2c0.1-0.5,0.2-0.9,0.2-1.4h0.2c-0.1-0.2-0.2-0.5-0.2-0.7h0.2c0.3-0.4,0.1-0.3,0.7-0.5
			c0.1-0.2,0.2-0.5,0.2-0.7h-0.2c0-1-0.1-1.3-0.7-1.7v-0.2c-0.4,0.2-0.7,0.3-0.9,0.7c-0.3-0.4,0.3-1.2,0-1.9
			c-0.2-0.1-0.3-0.2-0.5-0.2c-0.4-0.8-0.1-1.1,0-1.9h0.7c0.1,0.5,0.2,0.9,0.2,1.4h0.5c0.1,0.8,0.1,1,0.2,1.9l0.9-0.2v-0.2
			c0.3,0.1,0.6,0.2,0.9,0.2c0.1-0.2,0.5-0.5,0.5-0.5v-0.7h0.2v-0.2h-0.2v-0.2h2.4v-0.5h-0.7c-0.1-0.2-0.2-0.5-0.2-0.7h-0.9v0.7h-0.5
			c0.2-0.8,0.3-1.6,0.5-2.4h-0.2v-0.7h-0.2c-0.3-0.8,0.3-2.2,0.2-2.6c0-0.1-0.6,0-0.5-0.7h0.2c0.2-0.7,0.3-1.4,0.5-2.1h0.2
			c0.1-0.3,0.2-0.6,0.2-0.9h0.2c0.7-1.9-1.3-4.1-0.7-5.9h0.2c0.1-0.5,0.2-0.9,0.2-1.4l0.5-0.2v-0.5h0.2c0.2-0.2,0.3-0.5,0.5-0.7h0.5
			v-0.7h0.5c0.2-0.7,0.9-1.7,1.4-2.1v-0.7c-0.5,0.4-0.9,0.8-1.4,1.2v0.5h-0.2c-0.1,0.2-0.2,0.3-0.2,0.5h-0.5
			c-0.5,0.6-0.9,1.1-1.4,1.7h-0.7v0.2h0.7c-0.1,0.4-0.2,0.4-0.2,0.9h-0.2c-0.2-0.5-0.9-1.8-0.5-2.8h0.2v-0.5
			c0.1-0.2,0.8-0.4,0.7-0.7h-0.2c-0.2-1.4-1.1-2.3-0.5-4c-0.4-0.2-0.6-0.4-1.2-0.5c-0.1,1.1-0.6,1.1-0.7,2.1h-0.2V58
			c0,0-0.4-0.3-0.5-0.5c-0.7,0.1-1.4,0.2-2.1,0.2v0.5h-0.2v-0.5c0.8-0.4,1.7-0.9,2.1-1.7h0.5c-0.1-0.6-0.2-1.3-0.2-1.9h0.2V54H103
			v-0.5c0.6,0.2,0.7,0.2,0.9,0.7c1.1,0,1.5-0.1,2.1-0.5v-0.9h0.2v-0.2h-0.2v-1.4c-0.5,0.1-0.7,0.2-0.9,0.5h-0.2
			c0.1-1.1,0.5-1.5,0.7-2.4v-2.1h0.2v-0.5c0.2-0.2,0.5-0.3,0.7-0.5v-0.2h-0.2v-1.4c-0.9,0.2-1.4,0.6-2.1,0.9c-0.1,0.7,0,2-0.2,2.8
			h-0.2c-0.1,0.5,0.5,0.9,0.2,1.7h-0.2v0.5h-0.2c-0.1,0.2-0.2,0.5-0.2,0.7c-0.3,0.2,0,0-0.2,0.2h-0.2c0.1-0.5,0.7-1.1,0.5-1.7
			c-0.2-0.1-0.3-0.2-0.5-0.2v-0.2h0.2v-0.9h0.2c0.2-0.9,0.3-1.9,0.5-2.8h0.2c0.2-0.6,0.1-0.5,0.7-0.7c0.2-0.8,0.5-0.6,0.7-1.4h0.2
			c0.3-0.7-0.7-0.5-0.5-1.2c0.2-0.1,0.3-0.2,0.5-0.2c0.1-0.5-0.2-0.5-0.5-0.7v-0.2c0.5,0.1,0.9,0.2,1.4,0.2c0.1,0.4,0.2,1.9,0.5,2.1
			c0.1,0.5,0,0.2,0.2,0.5c0.2-0.5,0.3-1,0.2-1.9h0.7c0.1-0.5,0.2-0.9,0.2-1.4H108V40h0.5v-0.5c-0.5-0.7-0.8,0.3-0.9-1.4
			c-0.3,0.2,0,0-0.2,0.2c-0.5,0.3-0.5,0.4-0.5,1.2c-0.3-0.2,0,0-0.2-0.2c-0.4-0.3-0.3-0.1-0.5-0.7h-0.5v-0.7c0.7-0.1,0.7,0,0.9-0.5
			c0.3-0.3,0.1-0.5,0-1.4h1.2c-0.1-0.4-0.2-0.8-0.2-1.2h0.7v-0.2h-0.5V34c0.3,0.2,0.6,0.5,0.9,0.7c0.1-0.2,0.2-0.5,0.2-0.7h0.2v0.7
			h0.2V35h0.2c0.1-0.5,0.2-0.9,0.2-1.4c0,0-0.3-0.1-0.2-0.7c0,0,0.4-0.3,0.2-0.7c-0.1-0.1-0.7-0.3-0.7-0.7c0.2-0.1,0.3-0.2,0.5-0.2
			c0.3-0.6,0.2-1.7,0.2-2.6c-0.5,0.1-0.9,0.2-1.4,0.2v-0.7h-0.2v-0.7h0.2v-0.2c0.2,0.1,0.5,0.2,0.7,0.2c0.2-0.1,0.2-0.5,0.5-0.7v0.5
			h0.7v-0.2h0.2V26c-0.6,0.2-0.4,0.1-0.7,0.5h-0.2c0.1-0.2,0.5-0.5,0.5-0.5l-0.2-0.7h0.7c-0.3-0.3-0.1-0.3,0-0.7h0.7
			c-0.1,0.2-0.2,0.5-0.2,0.7c0.3-0.2,0,0,0.2-0.2c0.4-0.3,0.3-0.1,0.5-0.7c0.4,0.1,0.8,0.2,1.2,0.2c0.1-0.5,0-0.2,0.2-0.5v-0.2
			c0.2,0.1,0.3,0.2,0.5,0.2v-0.2h0.2c-0.1-0.3-0.7-1-0.9-1.2v-0.7c0.3,0.2,0.6,0.5,0.9,0.7v-0.5c0.7,0.2,0.6,0.4,1.4,0.5v-0.5
			C114.8,22.1,114.5,22,114.2,21.7z M82.6,103.1h-0.2v-0.2l-0.5,0.2v-0.5h0.5v-0.5h0.2V103.1z M101.6,86.3v-0.5h0.2v0.9
			c-1,0.3-0.3,0.1-0.7,0.7c-0.1,0.2-0.3,0.1-0.5,0.5h-0.7v-0.5C100.8,87.2,100.9,86.6,101.6,86.3z"/>
	</g>
</g>
</svg>
