<?xml version="1.0" encoding="utf-8"?>
<!-- Generator: Adobe Illustrator 25.2.0, SVG Export Plug-In . SVG Version: 6.00 Build 0)  -->
<svg version="1.1" id="Camada_1" xmlns="http://www.w3.org/2000/svg" xmlns:xlink="http://www.w3.org/1999/xlink" x="0px" y="0px"
	 viewBox="0 0 137 158" style="enable-background:new 0 0 137 158;" xml:space="preserve">
<style type="text/css">
	.st0{fill:#84D06A;}
</style>
<g id="mataatlantica_1">
	<g>
		<path class="st0" d="M124.5,26.4c0.2-0.5,0.1-1.4,0.2-2.1c-0.3-0.3-0.2-0.4-0.2-1h-0.1v0.2l-0.1,0.1l0,0c0-0.1,0-0.5,0-0.6
			c-0.6-0.3-0.6-1.9-0.7-2.8c-0.1,0-0.1,0-0.2,0c-0.1-0.2-0.1-0.4-0.1-0.7c-0.1,0-0.1,0-0.2-0.1c-0.1-0.3-0.1-0.8-0.2-1.1
			c-0.1-0.2-0.3-0.2-0.2-0.6h-0.1c-0.1-1-0.8-3.6-1.9-3.8c-0.1,0.6,0.4,1.1,0.6,1.5c0.4,0.6,0.6,1.3,0.8,2c-0.4,0.1-0.3,0.9-0.3,1.3
			c0,0.3-0.4,1-0.2,1.5c0.1,0.3,0.5,0.4,0.6,0.8c0.1,0.5,0,1.3,0.3,1.6c-0.2,0.2-0.6,0.3-0.9,0.5v0.1c0.2,0.2,0.4,0.2,0.5,0.4
			c0.4,0.6-0.8,1.2-1.1,1.4c-0.2,0.1-0.4,0.5-0.5,0.7c0.1,0.1,0.1,0.1,0.3,0.1c0.1,0.2,0.1,0.5,0.2,0.7l0,0c0.1,0,0.2-0.1,0.3-0.1
			c0,0.1,0,0.1,0.1,0.2c0.3,0.1,0.7-0.3,1.2-0.3l0,0l0,0c-0.4,0.4-0.6,0.7-1.4,0.7c-0.3,0.5-0.6,1.2-0.7,1.8c-0.4-0.2-0.6,0.2-1,0.3
			c-0.3,0.1-0.3-0.1-0.5-0.1c-0.2-0.1-1,0.4-1.1,0.5c0,0.2,0,0.2,0.1,0.2c0.4,0.3,1-0.2,1.3-0.2c0.2,0.2,0.4,0.3,0.5,0.5
			c-0.1,0.1-0.2,0.2-0.3,0.4c-0.2,0.1-0.4,0.1-0.6,0.2c-0.1,0.1-0.3,0.2-0.4,0.3c-0.1,0-0.3,0-0.4,0.1c-0.4,0.2-0.9,0.5-1.2,0.7
			c-0.2,0.2-0.4,0.3-0.5,0.5c-0.2,0.1-0.5,0.1-0.8,0.2c-0.1,0.1-0.1,0.1-0.3,0.1c-0.2,0.3-0.2,0.7-0.3,1.1c-0.1,0.1-0.1,0.1-0.3,0.1
			c0,0.1,0.1,0.6,0.2,0.7c0.1,0.1,0.2,0,0.3,0c0.1-0.2,0.5-1.2,0.7-0.5c0.2,0,0.2-0.1,0.3-0.1l0,0c0,0.1,0,0.2,0,0.3
			c-0.3,0.2-0.5,0.6-0.6,1.1c-0.1,0.3,0.2,0.5,0.1,0.6c0,0.1-0.4,0.6-0.4,0.6l0,0c-0.1,0.1-0.2,0.1-0.3,0.2c0,0.4,0,0.8,0,1.1
			c-0.1,0.2-0.2,0.3-0.2,0.5c-0.2,0.1-0.6,0.2-0.9,0.2c-0.1,0.1-0.1,0.2,0,0.4l1,0.5l0,0c0.1,0,0.2-0.1,0.2-0.1
			c0.2-0.1,0.4,0.1,0.6,0l0,0c0.2-0.1,0.3-0.3,0.5-0.5c0.1,0,0.2,0.1,0.3,0.1c0.1,0.1,0.1,0.1,0.1,0.3c-0.1,0.1-0.4,0.1-0.5,0.2
			c-0.1,0.1-0.2,0.3-0.4,0.4c-0.2,0.1-0.5,0-0.8,0c0,0.1,0,0.2-0.1,0.3c-0.5,0-1.5-0.5-1.7-0.8s-0.1-0.4-0.5-0.5
			c0.1-0.2,0.3-0.2,0.3-0.5c-0.2,0-0.3,0-0.5,0c-0.1,0.3-0.5,0.7-0.7,1c-0.1,0-0.3,0-0.4,0c-0.1,0.2-0.3,0.4-0.5,0.4l0,0
			c0.2,0.2,0.4,0.5,0.6,0.7c-0.2,0.2-0.6,0.5-0.5,0.8c0.5,0.1,0.5,0.6,0.5,1.1c-0.1,0-0.2,0-0.4,0c-0.2-0.3-0.2-0.6-0.5-0.8
			c-0.1,0-0.2,0-0.3,0.1c-0.2,0.4,0,1,0.3,1.2c-0.1,0.3-0.3,0.6-0.6,0.9c-0.2,0.2-0.5,0-0.7,0.4c-0.5,0.7-0.5,2-0.9,2.8
			c0.2,0.1,0.2,0.1,0.3,0.3c-0.1,0.2-0.2,0.4-0.1,0.8c-0.1,0-0.1,0.1-0.2,0.1s-0.1,0-0.2,0c-0.1-0.1-0.1-0.2-0.2-0.3
			c-0.1,0-0.2,0-0.3,0c-0.1-0.1-0.2-0.2-0.3-0.3c-0.4,0.1-0.7,0.5-1.1,0.5c-0.1,0.1-0.1,0.2-0.2,0.3c0,0.4,0.2,0.7,0,1.1l0,0
			c-0.2-0.1-0.4-0.1-0.6,0c-0.1,0.1-0.1,0.2-0.1,0.4l0,0c-0.4-0.4-0.2-1.1-0.5-1.6h-0.1c-0.1,0.2-0.1,0.5-0.1,0.8
			c-0.5,0-0.7,0.1-0.8,0.5c0.1,0.3,0.1,0.5,0.1,0.8c0,0.2,0.1,0.3,0.1,0.4c0.1,0.4-0.6,0.8-0.8,0.9c-0.1-1-0.3-2.5-1.1-2.7
			c-0.6,0-1.3,0-1.9,0l0,0c0.2,0.5,0.3,0.5,0.5,0.8c0.3,0.5,0.3,1.3,0.8,1.6c0.2,0.1,0.5,0.1,0.7,0.3v0.1c-0.1,0-0.1-0.1-0.2-0.1
			l0,0c0,0.1,0,0.2,0,0.3c-0.2,0-0.3,0-0.4,0.2c-0.2,0-0.3-0.1-0.5-0.2c-0.5-0.1-1,0.3-1.2,0.6c0,0.2,0.1,0.2,0.2,0.3
			c-0.1,0.6-0.8,1.4-1.5,1.2c0,0.5-1.1,0.8-1.5,0.9c-0.3,0.3-0.3,0.8-0.7,1c-0.2,0.1-0.5,0.1-0.7,0.2c-0.2,0-0.4,0-0.6-0.1
			c-0.2,0.1-0.5,0.3-0.7,0.4c-0.1,0.1-0.1,0.2-0.1,0.2c0.2,0.1,0.2,0.3,0.6,0.3c0.4,0.8,0.6,1,1.8,1c0.5,0.6-0.1,2.4-0.6,2.9
			c-0.1,0.1-0.3,0.4-0.4,0.4l-0.3,0.1c-0.2,0.3,0,0.4-0.5,0.5c-0.1,0.2-0.1,0.5-0.2,0.7c-0.3,0.3-1.4,0.4-1.8,0.1
			c-0.3-0.2-0.2-0.7-0.6-0.9c-0.4,0.4,0.2,0.8,0.2,1.2c-0.2,0.4-1.3,1.4-2,1.4c-0.1,0.1-0.2,0.2-0.3,0.3V65c-0.1,0.2-0.7,0.1-0.9,0
			c-0.1,0-0.1-0.1-0.1-0.2c-0.9-0.1-2.2,0.1-3,0.4c-0.2,0.1-0.4,0.4-0.8,0.3c-0.5-0.1-1-0.5-1.4-0.7c-0.2-0.1-0.1-0.3-0.4-0.4
			c-0.2,0.1-0.5,0.5-0.6,0.7c0,0.2,0,0.4,0.1,0.5c0,0.3,0,0.5,0,0.8c0,0.5,0.2,0.6-0.3,0.9c0,0.6,0,1.3,0.1,1.8c0.2,0,0.3,0,0.5,0.1
			c0.1,0.4,0.1,0.9,0.1,1.3l0,0c0.1-0.3,0.9-1.4,0.8-1.6c-0.1-0.1-0.2-0.1-0.2-0.2c0.1-0.1,0.1-0.2,0.2-0.3v-0.1
			c-0.2,0-0.2,0.1-0.4,0.1c-0.1-0.1-0.1-0.1-0.1-0.2c-0.1,0-0.2-0.1-0.4-0.1c0.2-0.2,0.3-0.3,0.5-0.5c0.2-0.8-0.3-1.8-0.2-2.5l0,0
			c0.3,0,0.2,0.2,0.3,0.3c0.1,0.1,0.2,0.1,0.3,0.2c0.4,0.4-0.1,1.1-0.1,1.6h0.1c0.1-0.2,0.1-0.4,0.2-0.5h0.1l0,0
			c0,0.2-0.1,0.4,0,0.5c0,0.2-0.1,0.2-0.2,0.3c0.1,0,0.4,0.3,0.5,0.3c0.2-0.1,0.2-1.1,0.2-1.3l0,0h0.1c0.1,0.3,0.3,0.4,0.3,0.9
			c0.1,0,0.1,0.1,0.2,0.1c0.2,0,0.2-0.1,0.4-0.1c0,0.3-0.1,0.4-0.1,0.6c0.2,0,0.3,0,0.5,0c0.1,0.1,0,0.2,0.1,0.4
			c0.1,0.1,0.3,0.1,0.3,0.3c-0.1,0.2-0.5,0.4-0.7,0.5V69c0.1,0,0.2,0,0.2,0c0,0.1,0,0.2,0,0.2h0.1l0.2,0.2c0.3-0.2,0.2-0.1,0.2-0.5
			c0.1-0.1,0.4-0.2,0.5,0.1h0.2c0,0.1,0,0.1,0,0.2h0.2c0,0,0,0,0,0.1l-0.1,0.1c0,0.1,0,0.1,0.1,0.2c-0.2,0.2-0.7,0.3-1,0.4
			c-0.6,0-0.8-0.5-0.8-1.1c-0.5-0.2-0.7-0.4-1.1,0.1c-0.1,0.1-0.2,0.3-0.3,0.4v0.5c0,0.1-0.1,0.3-0.1,0.4c0.1,0.2,0.1,0.3,0.2,0.5
			c0.1,0.3,0,0.7,0.1,0.9c0.1,0.2,0.3,0.3,0.3,0.5c0.1,0.3,0,0.5,0,0.8c0.4,0.1,0.6,0.2,1,0.3c0,0.1,0,0.2,0,0.3
			c-0.4,0.1-0.6-0.1-1.1,0c-0.1,0.1-0.1,0.2-0.2,0.2c0,0.2,0,0.3,0,0.5c0.3,0,0.4,0,0.6-0.1h0.1c0,0,0,0,0,0.1
			c-0.2,0.1-0.4,0.2-0.5,0.5c0.1,0.2,0.4,0.2,0.5,0.4c-0.1,0.4-0.3,1-0.6,1.2c0.2,0.4,0.5,0.6,0.6,1.1c0,0.3-0.1,0.4-0.4,0.5
			c-0.1,0.1-0.1,0.2,0,0.3c0.1,0.1,0.2,0.2,0.4,0.2c0,0,0,0.1,0.1,0.1c-0.5,0.7-0.6,0.1-1.2,0.4l-0.1-0.1c0-0.1,0.1-0.2,0.1-0.3
			c-0.1-0.2-0.8-0.5-1-0.5c0,0.1-0.1,0.3-0.1,0.4c-0.1,0.3-0.3,0.5-0.5,0.8c-0.1,0-0.2,0-0.4,0c-0.1,0.1-0.1,0.1-0.1,0.2
			c0.1,0.2,0.5,0.1,0.7,0.2c0,0,0,0,0,0.1s0,0.1,0,0.2c-0.3,0.6-1.6,0.1-1.8-0.2c-0.1-0.1-0.1-0.4-0.1-0.5h-0.2
			c-0.2,0.4,0,1.1-0.2,1.5c-0.3,0.5-0.9,1.1-1.4,1.5c-0.2,0.1-0.4,0.1-0.5,0.2c-0.1,0.2-0.3,0.5-0.4,0.7c-0.1,0-0.2,0-0.3,0l0,0
			c-0.8,2.2,1.4,2.4,2,3.5c0.2,0.5-0.2,0.7-0.3,1c0,0.3,0.1,0.7,0.1,1c-0.1,0.4-0.3,0.6-0.4,1c-0.1,0-0.1,0-0.2,0v-0.2
			c-0.1,0-0.2,0-0.2,0c0,0.1-0.1,0.2-0.1,0.3c-0.5,0.2-1-0.2-1.5-0.1c-1,0.1-2.5,0.7-3.5,0.2c-0.4-0.2-0.3-0.7-0.5-1
			c-0.2-0.2-0.5-0.3-0.7-0.6c0,0,0,0-0.1,0c-0.1,0.1-0.1,0.3-0.1,0.5c-0.1,0.1-0.1,0.1-0.2,0.1c0-0.1-0.1-0.1-0.1-0.2
			c-0.1,0-0.3,0-0.4,0c-0.2,0-0.2-0.3-0.6-0.2c0,0-0.1,0-0.1,0.1s0,0.2,0,0.3c0.2,0,0.3,0.1,0.5,0.1c0,0,0.8,0.5,0.9,0.6
			c0.1,0.2,0.2,0.4,0.4,0.6c0.2,0.1,0.3,0.2,0.5,0.4c0.3,0.4,0,1.5,0,1.9c-0.4,0.3-0.9,0.4-1.3,0.6c-0.1,0.1-0.2,0.2-0.3,0.2
			c-0.2,0.1-0.4,0-0.5-0.1c-0.6-0.5,0.2-1.4,0-2.2c0.1-0.2-0.4-0.2-0.6-0.2c-0.2,0.1-0.2,0.3-0.4,0.4c0-0.1-0.1-0.1-0.1-0.2h-0.1
			v0.1c-0.3,0.1-0.3,0-0.6,0.1c-0.2,0.1-0.2,0.3-0.3,0.4c-0.2,0.2-0.5,0-0.6,0.3c0.1,0.3,0.3,0.5,0.4,0.7c0.2,0.4-0.1,0.6,0.2,1
			c0.2,0.2,0.6,0.2,0.7,0.4c0.1,0.1,0.3,0.6,0.1,0.7l0,0c-0.2,0-0.3-0.1-0.5-0.1c-0.1,0.1-0.1,0.3-0.2,0.6c-0.2,0.9,0,0.8,0.5,1.4
			l0,0c-0.2,0-0.3,0.1-0.5,0.1c-0.1-0.1-0.1-0.3-0.2-0.5c-0.1-0.1-0.1-0.1-0.2-0.1c-0.1,0.2-0.2,0.4-0.3,0.5c-0.2,0.2-0.8,0.3-1,0.2
			c0-0.1,0-0.1,0-0.2c0.1-0.2,0.6-0.2,0.8-0.2c0,0,0,0,0-0.1v-0.1c-0.3,0-0.6,0-0.9,0c-0.1,0-0.1-0.2-0.2-0.3
			c-0.1-0.1-0.7-0.2-0.8-0.2c-0.1,0.1-0.1,0.1-0.2,0.2h-0.1c0-0.2,0-0.3,0-0.5c-0.2-0.1-0.3-0.2-0.5-0.3c-0.2,0.2,0.2,0.3,0.3,0.5
			c-0.4-0.3-0.8-0.5-1.4-0.7c-0.2,0.2-0.7,0.3-1,0.1c-0.1-0.1-0.1-0.2-0.1-0.4c-0.4-0.1-1.2-0.4-1.5-0.6c-0.2-0.2-0.2-0.5-0.5-0.6
			c-0.1,0.1-0.2,0.2-0.3,0.3c-0.2,0.4,0.8,1.7,1,2.1c-0.3,0.6-0.8,1.1-1,1.9c0,0.2,0,0.4,0.1,0.6c0,0.3,0,0.6,0.1,0.9
			c0.2,0.4,0.4,0.8,0.6,1.1c0.3,0.8,0.2,1.9,0.2,3c-0.6,0.2-0.9,0.4-1.3,1c-0.2,0.3-0.2,0.5-0.4,0.7c-0.3-0.1-0.7-0.1-1-0.2
			s-0.5-0.3-1-0.3c0.1-0.4,0.4-1,0.7-1.2c0.2-0.1,0.6-0.1,0.9-0.2c0-0.1,0.1-0.1,0.1-0.2c-0.1-0.1-0.3-0.3-0.4-0.4
			c-0.1,0-0.2,0-0.3,0l0,0c0.2-0.4,0.3-0.7,0.5-1.1c0.2-0.6,0-1.2,0.1-1.8c0.1-0.3,0.2-0.5,0.3-0.8c0-0.4-0.3-0.6-0.4-1
			c0.2-0.2,0.3-0.4,0.6-0.5l0.1-0.1c-0.1-0.1-0.1-0.1-0.1-0.2c-0.2-0.1-0.3,0-0.5-0.1c-0.1,0-0.1,0-0.2,0c0,0.2,0,0.3-0.1,0.5h-0.2
			c-0.2-0.3,0-0.6,0-1c0,0,0,0-0.1,0s-0.3,0.2-0.5,0.3c0,0.4-0.1,0.8,0.1,1.1c0.1,0.1,0.2,0,0.3,0.1l0,0c0.1,0.1,0.1,0.2,0.2,0.4
			c0.1,0.1,0.2,0.1,0.2,0.2c-0.1,0.3-0.1,0.6-0.1,0.9l0,0c-0.3,0-0.5-0.2-0.6-0.4c-0.1-0.1-0.1-0.1-0.2-0.2
			c-0.1,0.2-0.2,0.4-0.3,0.5c-0.1,0-0.1,0-0.2,0c0-0.2,0-0.4,0-0.6h-0.1c-0.3,0.2-0.5,0.3-0.6,0.7c0,0,0.1,0,0.1,0.1
			c0.1,0,0.3-0.1,0.4-0.1l0,0c-0.1,0.4,0,0.1,0.1,0.4c0,0.2,0,0.3-0.1,0.5l0,0c0.1,0,0.3,0.1,0.4,0l0,0c-0.1,0.1-0.1,0.2-0.1,0.4
			c0,0,0.1,0,0.1,0.1c-0.1,0.4,0,0.4,0.1,0.8c-0.1,0.1-0.1,0.2-0.2,0.2c-0.2,0-0.3-0.1-0.5-0.1c-0.1,0.2-0.1,0.5-0.2,0.7
			c-0.1,0.1-0.2,0.2-0.3,0.4c0,0.1,0,0.2,0,0.3c-0.1,0.1-0.3,0.2-0.4,0.3c0,0.2,0.1,0.3,0.2,0.4c-0.1,0.1-0.3,0.1-0.5,0.1
			c-0.3,0.5,0.9,0.5,0.7,1.2l0,0c-0.6-0.1-1.4-0.3-1.7,0.3c-0.1,0-0.2,0-0.3-0.1c-0.3,0.3-0.5,0.7-0.8,1c-0.1,0-0.1,0-0.2,0
			c0-0.4,0.2-0.4,0.4-0.6v0.3c-0.2-0.2-0.6,0.1-0.9,0c-0.2,0.1-0.2,0.3-0.5,0.4c-0.1,0-0.1,0-0.2-0.1c-0.1,0.1-0.2,0.3-0.4,0.4
			c-0.1,0-0.1-0.1-0.2-0.1c-0.2,0.2-0.3,0.3-0.5,0.5v0.1c0.5,0.1,1.1-0.1,1.6-0.1c0.2,0.3,0.5,1.3,0,1.5c-0.2,0.1-1.5-0.4-1.7-0.5
			c-0.1,0.1-0.1,0.1-0.2,0.2v0.1c0.2,0.1,0.5,0.3,0.7,0.4c0.1,0.1,0.2,0.3,0.4,0.4c0.7,0.2,1.1-0.2,1.6-0.4c0.3-0.1,1-0.2,1.3-0.1
			l0,0c0.1,0.1,0.1,0.6,0.1,0.8c-0.5,0.4-1.2,0.2-1.8,0.1c-0.3-0.1-0.4,0.1-0.5,0.1c-0.2,0-0.3-0.2-0.7-0.2
			c-0.6,0.1-0.4,0.4-0.7,0.5c-0.4,0.1-1-0.6-1.3-0.1v0.3c0.5,0.2,1.2,0.4,1.8,0.5c0.2,0,0.3,0,0.5,0c0.1,0,0.3,0.2,0.4,0.3l0,0
			c0,0.2-0.1,0.2-0.2,0.3c-0.5,0.2-1.9-0.6-2.3-0.1c-0.1,0.1-0.1,0.7-0.1,1c-0.1,0.1-0.2,0-0.4,0.1c-0.5,0.1-1.1,0.6-1.3,1.1
			c-0.3,0.1-0.5-0.1-0.8,0.2l0,0c-0.1-0.2-0.3-0.3-0.3-0.7c0,0-0.1,0-0.1-0.1c-0.4,0.5-1,0.3-1.6,0.5c-0.3,0.1-0.5,0.3-0.8,0.4
			c-0.6,0.2-0.7,0.1-1,0.6c-0.1,0.2-0.2,0.4-0.3,0.6c-0.2,0.1-1.3-0.5-1.5-0.5c-0.1-0.2,0-0.6-0.1-0.8c0.1,0,0.1-0.1,0.2-0.1
			c0.1-0.1,0.9,0.1,1.2,0.1c0-0.1,0.1-0.1,0.1-0.2l-0.1-0.1c-0.2-0.1-0.4-0.1-0.7-0.1c0-0.1,0-0.1,0-0.2c0.1-0.1,0.4,0,0.6-0.1
			c0.1,0,0.2-0.2,0.3-0.3c0.2-0.1,0.4-0.1,0.5-0.2s0.2-0.3,0.3-0.5c0,0,0.4,0,0.5,0l0,0c0.1,0.2,0.1,0.4,0.1,0.7
			c0.1,0,0.2,0,0.3-0.1c0.1,0.1,0.2,0.1,0.2,0.2c0.1,0,0.2,0,0.4,0c0.1-0.3,0.4-0.5,0.5-0.8h-0.6c-0.1-0.2-0.1-0.5-0.1-0.7
			c0.4-0.3,1.3-0.3,2-0.3c0-0.4,0-0.6-0.1-0.9c1.2-0.3,0-1.4,0.2-2.3c0.1-0.5,0.3-1.4,0-1.7c-0.1-0.1-0.3-0.1-0.5-0.1
			c-0.2-0.3-0.4-0.6-0.6-0.9c-0.8-0.3-1.3,0.5-2,0.3c-0.5-0.1-1-0.3-1.6-0.4l0,0c-0.2,0-0.5,0.1-0.7,0.1s-0.3-0.2-0.5-0.1
			c-0.2,0-0.3,0.1-0.5,0.1c-0.3,0-0.3-0.3-0.5-0.4c-0.3-0.2-0.8-0.3-1.3-0.2c-0.1-0.1-0.2-0.2-0.3-0.4c-0.1-0.1-0.2-0.1-0.4-0.1
			c-0.2,0.2-0.3,0.4-0.5,0.5c-0.4-0.1-0.5-0.3-0.9-0.1l0,0c-0.1-0.3-0.1-0.4-0.2-0.6c0.1-0.1,0.1-0.2,0.2-0.3c0-0.2-0.2-0.4-0.3-0.6
			c0.4-0.6,1.1-0.7,1.5-1.2h0.2c0.1,0.3,0,0.7,0.1,1c0,0.1,0,0.1-0.1,0.2c0,0,0,0,0,0.1c0.3,0.1,0.6-0.1,0.9,0
			c0.4,0.1,0.5,0.5,1,0.6l0.2-0.3c0.2-0.1,0.3,0.1,0.5,0c0.1,0,0.2-0.1,0.4-0.1c0.4,0.1,0.8,0.2,1.2,0.3c0.1,0.1,0.2,0.2,0.4,0.3
			c0.3,0.1,0.5-0.1,0.9,0c0.3,0.1,0.5,0.3,0.8,0.4c0.5,0.1,0.8-0.1,1.1-0.1c0,0.1,0,0.2,0.1,0.3c0.1,0,0.1,0,0.2,0.1c0,0,0,0,0.1,0
			c0.2-0.2,0.3-0.6,0.4-0.9c0.1-0.1,0.1-0.1,0.2-0.1c0.1,0.1,0.1,0.4,0.1,0.6c0.1,0,0.1,0.1,0.2,0.1c0.2-0.1,0.4-0.2,0.6-0.3
			c0.1,0.1,0.3,0.1,0.4,0.2c0,0,0,0,0.1-0.1c0,0-0.2-0.6-0.2-0.8c-0.2,0-0.2,0-0.2,0.1h-0.1c0-0.1,0-0.1,0-0.2c-0.1,0-0.1,0-0.2,0
			l-0.2,0.1c-0.1,0-0.1-0.1-0.2-0.1c-0.2-0.7,0.4-1,0.6-1.5c0.5-0.1,0.9-0.4,1.3-0.5c0.1,0.2,0.2,0.4,0.4,0.4
			c0.1,0.7,0.6,0.8,0.8,1.3c0,0.3,0.1,0.6,0.1,0.9c0.1,0.2,0.3,0.5,0.4,0.7c0.2,0.5-0.2,0.3,0.3,0.7c0.4-0.2,0.6-0.4,0.6-1
			c0.1,0,0.1-0.1,0.3-0.1c-0.1-0.2-0.1-0.2,0-0.4c0.2,0,0.4-0.1,0.6-0.1c0-0.1,0-0.2,0-0.3c-0.2-0.1-0.6-0.2-0.8-0.4
			c-0.1-0.2-0.2-0.4-0.4-0.6c-0.1,0-0.2-0.1-0.3-0.1c-0.2-0.3-0.3-0.6-0.5-0.9l0,0v0.1h-0.2c-0.1-0.2-0.4-0.6-0.3-0.8
			c-0.1-0.1-0.3-0.1-0.5-0.1l-0.1,0.1h-0.1c0-0.1,0-0.2,0-0.3c-0.2-0.1-0.3-0.2-0.4-0.3c-0.1,0-0.2,0.1-0.3,0.1
			c-0.1-0.1-0.1-0.1-0.2-0.2c0-0.3,0.2-0.4,0.3-0.6s-0.1-0.4,0-0.6c0.3-0.4,0.5-0.8,0.8-1.2c0.6,0,0.6,0.2,0.7,0.6
			c0.3,0,0.8-0.1,1,0.1c0.1,0.3,0.2,0.6,0.3,0.9c0.1-0.1,0.2-0.2,0.3-0.2c0-0.5-0.3-0.8-0.3-1.2c0.2-0.3,0.5-0.4,0.6-0.7
			c0.2-0.3-0.4-0.8-0.5-1c-0.2-0.3-0.4-0.6-0.7-0.9c-0.3-0.7,0.2-2.3-1.3-1.5c-0.1-0.1-0.2-0.2-0.4-0.2c-0.2-0.4,0.2-0.9-0.1-1.2
			c-0.1-0.1-0.3-0.1-0.4,0c0,0.1-0.1,0.3-0.1,0.4s0.1,0.1,0.1,0.2s0.1,0.1,0.1,0.2h-0.1c0-0.1-0.1-0.1-0.1-0.2H50v0.1
			c0.1,0.2,0.1,0.5,0.1,0.8c0.1,0.1,0.3,0.2,0.4,0.4h0.3c0.1,0.1,0.1,0.2,0.2,0.3c-0.1,0.4-0.6,1.2-0.9,1.4c-0.1,0-0.1,0-0.2-0.1
			c0-0.2,0-0.5,0-0.7c-0.2-0.2-0.5-0.3-0.8-0.4c-0.2,0.2-0.3,0.6-0.3,0.9h-0.3c-0.1-0.3-0.4-0.4-0.6-0.6c-0.3,0-0.6,0-1,0.1
			c-0.1-0.1-0.2-0.2-0.3-0.3c-0.4-0.2-0.5,0.1-0.9,0c-0.2-0.1-0.5-0.1-0.7-0.2c-0.1-0.2-0.1-0.4-0.2-0.6c-0.1,0-0.2,0-0.3-0.1
			c-0.2,0.2-0.3,0.6-0.5,0.8c0,0.1-0.1,0-0.2,0c-0.1-0.2-0.1-0.4-0.3-0.5c0,0,0-0.1-0.1-0.1v-0.1c0.1,0,0.1,0,0.2,0V93
			c0.2-0.1,0.4,0,0.6,0c0-0.1,0-0.2,0-0.4c0.3-0.2,0.5-0.2,0.9-0.2c0.5-0.4,0.6-1.1,1.2-1.4c0.1,0.1,0.2,0.3,0.3,0.4
			c0.2,0.1,0.4,0.1,0.6,0.2c0.1,0.1,0.2,0.1,0.3,0.2c0.3,0.1,0.5-0.1,0.8,0.1c0.1,0.1,0,0.1,0.3,0.2c-0.1,0.1-0.1,0.2-0.2,0.3
			c0.1,0,0.2,0.1,0.4,0.1l0,0c-0.1,0-0.1,0.1-0.2,0.1c0,0.1,0,0.2,0.1,0.3C48.8,93,49,93,49,93.2c0.2,0,0.3,0,0.3-0.2
			c0.1-0.1,0.2-0.1,0.1-0.4c-0.1,0-0.2-0.1-0.3-0.1c-0.3-0.4-0.1-0.3-0.1-0.7c0-0.4-0.6-0.8-0.4-1.3c0.1-0.2,0.2-0.1,0.4-0.1
			c0.1-0.3,0.1-1,0-1.3c-0.1,0-0.2,0-0.3,0c-0.1,0.2-0.2,0.4-0.4,0.5c-0.4,0.2-0.6,0-0.8-0.2c0.1-0.5,0.3-0.7,0.4-1
			c-0.3-0.1-0.8-0.3-0.9-0.5c-0.2,0-0.4,0-0.5,0c0,0.1-0.1,0.1-0.1,0.2c0.2,0.1,0.6,0.3,0.7,0.5c0,0.1-0.2,0.6-0.3,0.7
			c-0.3,0.3-1.4,0.1-1.8,0.2c0,0,0,0,0-0.1c0.1,0,0.2-0.1,0.3-0.2c-0.2,0-0.3,0.1-0.4,0.2l0.1-0.1h-0.1c0,0.1,0,0.1,0,0.2
			c-0.1-0.1-0.2-0.2-0.3-0.3c-0.2-0.1-0.3,0-0.5,0c-0.1-0.1-0.2-0.1-0.2-0.2c-0.3-0.1-1.1,0.4-1.4,0.5c-0.2,0.1-1.4-0.1-1.6-0.2l0,0
			c0.2-0.3,0.4-0.6,0.7-0.9c0.3,0,0.6,0.1,0.9,0c0.2-0.3,0.4-1,0.4-1.4c0-0.1-0.2-0.2-0.1-0.5c0.1-0.3,1.1-0.4,1.5-0.5l0,0
			c-0.1-0.1-0.3-0.1-0.5-0.2v-0.1c0.2-0.2,0.1-0.3,0.3-0.5c0.1-0.1,0.4-0.4,0.6-0.5c0.2-0.1,0.3-0.2,0.5-0.2c0.1-0.1,0-0.2,0-0.3
			c0-0.1,0.1-0.1,0.1-0.1c0.1,0.1,0.1,0.2,0.1,0.4c0.1,0,0.2,0,0.3,0c0.3,0.4,0.4,1,0.8,1.3l0.1-0.1c-0.1-0.3-0.2-0.5-0.2-0.8
			c0,0,0-0.1,0.1-0.1h0.1c0.2,0.3,0.3,0.6,0.6,0.8v-0.2c-0.1-0.3-0.4-0.5-0.5-0.7c-0.2-0.4,0.2-1,0.6-1c0.4,0,1,0.2,1.2,0.5
			c0.1,0.1,0.1,0.6,0.1,0.7c-0.1,0-0.2,0.1-0.2,0.2c-0.2,0.1-0.6-0.3-0.7-0.4c-0.3,0-0.4,0.2-0.6,0.3v0.2c0.3,0.1,0.6,0.2,1,0.3h1.1
			c0.2,0.1,0.7,0.2,0.9,0c0.1,0,0.1-0.1,0.2-0.1v-0.2c-0.4,0-0.8-0.1-1.2-0.1V85c0.3-0.4,0.8-1.1,1.5-1.1c0.2-0.3,0.4-0.8,0.8-1
			c0.1-0.1,0.1,0,0.2,0l0.1,0.1c-0.1,0.3-0.2,0.5-0.3,0.8c0,0,0,0.1,0.1,0.1c0.5,0.1,0.8-0.5,1.2-0.6c0,0,0,0.1,0.1,0.1
			c0.1,0.1,0,0.4,0,0.5l0.1,0.1c0.2,0,0.3-0.1,0.5-0.1l0,0c0,0.1,0,0.2,0,0.3l0,0c0.1,0.1,0.4-0.1,0.7-0.1V84l0.1-0.1
			c0.1,0.1,0.2,0.4,0.3,0.5c0.5,0.4,1.2,0.7,1.4,1.4H56c0,0,0,0,0.1,0c0.7-1.1-0.4-1.4-1.2-1.8c-0.2-0.1-0.2-0.3-0.4-0.4
			c-0.4-0.2-0.9-0.2-1-0.6c0-0.1,0-0.1,0-0.1c0.1-0.1,0.4,0,0.5,0c0-0.2,0.2-0.3,0.4-0.4c0.5-0.2,0.9,0.4,1.3,0.5
			c0.1,0.1,0,0.2,0,0.3l0,0c0.1,0,0.2,0,0.3-0.1c0,0,0.1,0,0.1,0.1c-0.1,0.2,0.1,0.2,0.3,0.2l0,0c0-0.1-0.1-0.2-0.1-0.2v-0.1
			c0.4,0.1,0.6,0.2,0.7,0.5h0.1v-0.1c-0.2-0.2-0.3-0.4-0.5-0.6v-0.1c0.1,0,0.2,0,0.3,0C57,83,57,83,57,83.2c0.2,0,0.3-0.1,0.5-0.1
			V83c-0.2-0.1-0.5,0.1-0.5-0.3c0.2-0.2,0.7-0.2,0.8-0.5c-0.1,0-0.1,0-0.2,0c0-0.1,0-0.2,0.1-0.3h-0.1h-0.1c0,0.2,0,0.2,0,0.4
			c-0.2,0.2-0.6,0.1-0.8,0.4c0,0,0,0-0.1,0c0-0.1-0.1-0.2-0.1-0.3h-0.1c-0.1,0.1-0.1,0.2-0.1,0.3c-0.1,0.1-0.4,0.3-0.6,0.4
			c-0.1-0.1-1.2-0.7-1.4-0.7c-0.2-0.1-0.3,0.1-0.5,0.1c0-0.4,0.4-0.5,0.3-1v-0.1l0,0c-0.1,0.1-0.1,0.3-0.3,0.4
			c-0.4,0.3-0.9-0.3-1.3-0.3c0-0.1,0-0.1,0-0.2c-0.1-0.1-0.3-0.1-0.4-0.2c0,0,0,0,0-0.1c0.2,0,0.3-0.1,0.5-0.1v-0.1
			c-0.2,0-0.4,0.1-0.5,0.1c-0.3-0.4-0.4-0.6-1.1-0.5c-0.3,0.2-0.7,0.5-0.8,1c0.1,0.1,0.3,0.1,0.5,0.2c0,0,0,0,0.1,0
			c-0.1,0.1-0.1,0.1-0.2,0.1h-0.1c-0.1-0.1-0.1-0.1-0.2-0.2h-0.1c0,0.1,0,0.1,0,0.2c0,0-0.1,0-0.1,0.1c0,0,0,0,0.1,0
			c0,0.1,0,0-0.1,0V82l0,0c-0.1-0.2-0.3-0.4-0.4-0.6c-0.1-0.1,0-0.3,0-0.6c-0.1-0.1-0.1-0.1-0.2-0.2h-0.1c-0.2,0.2-0.3,0.5-0.4,0.8
			c0.1,0.1,0.1,0.1,0.3,0.2c0,0.2,0,0.2-0.1,0.2l0,0c0.2,0.2,0.4,0.4,0.4,0.8c-0.2,0.2-0.3,0.4-0.5,0.7c-0.2,0.2-0.4,0.2-0.5,0.5
			c-0.1,0-0.2,0-0.2,0c-0.2-0.2-0.4-0.4-0.6-0.6h-0.1c-0.1,0.1-0.1,0.1-0.2,0.2h-0.1V83c0.2-0.2,0.4-0.3,0.6-0.5
			c0.1-0.5-0.1-1.5-0.5-1.8c0,0,0,0-0.1-0.1c-0.2,0.3-0.4,0.4-0.5,0.7c-0.1,0.3-0.1,0.6-0.2,0.8c0,0.2,0.1,0.3,0,0.5
			c-0.1,0.1-0.1,0-0.2,0.1c-0.8,0.4-0.5,0.1-1.3,0c0-0.1,0.1-0.1,0.1-0.2l0,0c-0.2,0-0.2,0.1-0.3,0.1l0,0c0-0.1,0-0.2,0.1-0.2
			c-0.1-0.2-0.2-0.2-0.3-0.3c-0.1-0.1,0.1-0.2,0-0.3c-0.1-0.3-0.5-0.5-0.4-0.9l-0.1-0.1c-0.1,0.2-0.2,0.3,0,0.5
			c-0.2,0.2-0.7,0.2-0.9,0.4c-0.2,0.2-0.2,0.4-0.3,0.6s-0.9,0.3-1.3,0.3c0,0.1-0.1,0.2-0.1,0.2c0.2,0.2,0.4,0.4,0.7,0.5
			c0,0.1,0.1,0.2,0.1,0.3v0.2c-0.2,0-0.2-0.1-0.3-0.1c-0.2-0.1-0.3,0.1-0.5,0.1c-0.5-0.2-0.9-0.4-1.4-0.6c-0.4,0.4,1.3,1.1,1.6,1.4
			c0,0.1,0,0.1,0,0.2c-0.3,0.1-0.9,0.2-1.1,0c-0.1-0.1-0.1-0.3-0.2-0.4c-0.1-0.1-0.3-0.2-0.4-0.3c-0.2-0.3-0.4-0.8-0.8-0.9
			c-0.1,0.1-0.1,0.1-0.2,0.2v0.3c0.2,0.3,0.5,0.5,0.7,0.9s0.3,0.8,0.5,1.1c0.2,0.1,0.4,0.2,0.5,0.3c0.1,0.1,0.1,0.2,0.2,0.3
			c-0.1,0.9-0.6,1.3-1,1.9c-0.1,0.1-0.1,0.3-0.2,0.4c-0.1,0.2-0.4,0.2-0.5,0.4c-0.2,0.2,0,0.4,0,0.6c-0.1,0.5-0.3,1-0.4,1.5l0,0
			c0,0,0,0,0.1,0c0.2-0.1,0.2-0.2,0.5-0.2c0.2,0.3,0,1-0.4,1c-0.1-0.2-0.2-0.4-0.4-0.4h-0.1v0.1c0.1,0.1,0.2,0.2,0.3,0.3
			c0,0,0,0,0,0.1l0,0c-0.3,0.1-0.6,0-0.8,0.1c0,0.2-0.1,0.3-0.1,0.5l0,0c-0.1-0.2-0.6-0.5-0.8-0.5v0.1c0.2,0.3,0.6,0.4,0.7,0.7
			c-0.1,0.1-0.4,0.2-0.5,0.4c-0.2,0.3-0.1,0.5-0.4,0.7c0-0.1-0.1-0.2-0.2-0.2l0,0c0,0-0.2,0.7-0.2,0.8c-0.7,0-1.1-0.9-1.7-1.2h-0.1
			l0,0c0,0.1,0.1,0.3,0.1,0.4c0.2,0.1,0.8,0.2,0.6,0.5c-0.1,0.1-0.5,0-0.6,0.1c0,0,0,0,0,0.1c0.7,0,1.2,0.1,1.7,0.4V95
			c-0.2,0.2-0.4,0.5-0.7,0.7c-0.1,0.2-0.1,0.4-0.2,0.6c-0.1,0.1-0.3,0.2-0.4,0.4c-0.2,0.3-0.4,0.6-0.5,0.9c-0.1,0.1-0.4,1.2-0.4,1.2
			c-0.1,0-0.3,0.1-0.4,0.1c-0.1-0.4,0,0-0.1,0.1c-0.1,0-0.2,0-0.3,0c-0.1,0.1-0.1,0.5-0.2,0.7c-0.2,0.1-0.3,0.3-0.5,0.4
			c-0.3,0.4-0.2,1-0.7,1.1c0-0.1,0-0.2,0-0.3c-0.6,0.2-1.3,0.5-1.9,0.7H30c-0.2,0-0.3,0.1-0.5,0.2c-0.1,0-0.3,0-0.4,0
			s-0.2,0.2-0.4,0.2c-0.3,0.1-0.8-0.4-1.1-0.5c-0.2-0.1-0.4,0-0.7-0.1c-0.6-0.2-2.1-1.1-2.2-1.8c-0.3-0.2-0.8,0-1.2-0.1
			c-0.5-0.1-0.8-0.5-1.2-0.7c-0.1,0.2-0.3,0.3-0.4,0.5c-0.2,0.4-0.2,0.9-0.3,1.2c-0.1,0-0.2,0.1-0.4,0.1c-0.1-0.1-0.3-0.2-0.4-0.3
			c-0.2-0.1-0.4,0-0.6-0.1c-0.1-0.1-0.1-0.2-0.1-0.3c-0.3,0-0.4-0.1-0.8-0.1c-0.6,0.6-0.3,1.1,0,1.7c0.1,0.2,0.2,0.4,0.4,0.5
			c0.1,0.1,0.4,0,0.5,0c0.2,0.2,0.5,0.4,0.6,0.7c-0.4,0.8-1.6-0.2-1.8-0.7c-0.1,0-0.2,0-0.3,0c-0.1,0.1-0.2,0.1-0.2,0.2
			c0.1,0.2,0.2,0.3,0.2,0.5c-0.5,0.2-0.8,0.5-1.1,0.6c-0.1,0-0.3,0-0.4,0c-0.2,0.1-0.3,0.3-0.6,0.4c-0.3,0.4,0.1,0.7,0.3,1l0,0
			c-0.3,0.1-0.5-0.1-0.8-0.2c0,0,0,0.4-0.1,0.4c-0.4,0.4-0.1,0.7,0,1.1c0,0.1,0,0.2-0.1,0.3c0.1,0.2,0.2,0.3,0.2,0.6
			c0.3,0,0.3,0.1,0.4,0.2l-0.1,0.1c0,0.1,0,0.1,0.1,0.2l-0.1,0.1v0.1c0,0.1,0.1,0.3,0.2,0.4c-0.1,0.2-0.2,0.5-0.3,0.5
			c0.1,0.3,0.1,0.5,0.1,0.7c0,0.1,0.1,0.1,0.2,0.2s0.1,0.2,0.1,0.4h0.1c-0.1,0.3,0,1,0.1,1.3c0.1,0,0.3,0.1,0.4,0.1
			c0-0.1,0-0.1,0.1-0.2c0.4,0.2,0.7,0.3,1.1,0c0.1,0.1,0.1,0.1,0.2,0.1c0.2-0.2,0.4-0.2,0.6-0.1c0.1,0,0.2-0.3,0.3-0.4
			c0,0,0.1,0,0.1,0.1c0.3-0.2,0.5-0.2,0.9-0.2c0-0.1,0.1-0.2,0.1-0.2c0.2,0,0.3,0.2,0.5,0.1c0.1,0.1,0.1,0,0.1,0.2
			c0.7,0,0.7,0.4,1.2,0.7c0.2,0,0.2,0.2,0.3,0.3c-0.1,0.2-0.2,0.2-0.3,0.4c0,0.4,0.5,1,0.5,1.2c-0.1,0.2-0.3,0.4-0.4,0.6
			c-0.1,0.4,0.2,0.6,0,1c-0.2,0.6-0.9,1.6-0.5,2.3c-0.1,0.4-0.7,1.3-1,1.6c0.1,0.2,0.1,0.4,0.1,0.7c0.1,0,0.2,0,0.3,0c0,0,0,0,0,0.1
			c0.1,0,0.1,0,0.2,0c0.2,0.1,0.2,0.2,0.3,0.4l0,0c0.1-0.1,0.1-0.2,0.2-0.4c0-0.2,0.1-0.1,0.2-0.1c0-0.1,0-0.1,0-0.2
			c0.1,0,0.1,0,0.2-0.1c0.1,0.1,0.1,0.1,0.2,0.2h0.1v-0.1c0.1,0,0.1,0,0.2,0.1h0.1v-0.1c-0.1,0-0.1,0-0.2,0v-0.1c0,0,0,0,0.1,0h0.1
			c0.1-0.1,0.2-0.2,0.3-0.2h0.1c-0.1,0.1-0.1,0.3-0.2,0.4c0,0.1,0.1,0.1,0.1,0.2l0,0c0.1,0,0.1-0.2,0.1-0.3l0,0l0.1,0.1
			c0.5,0,0.3,0,0.5,0.3c0,0,0,0,0-0.1c0.1,0,0.1,0,0.1,0v0.1h0.1c0,0.1,0,0,0.1,0.1c0,0,0,0.1-0.1,0.1c0.1,0,0.1,0,0.2,0
			c0,0.1,0,0.1,0.1,0.2c-0.1,0,0,0,0,0.1c0,0-0.1,0-0.1-0.1c0,0.1,0,0,0,0.1c0.1,0.1,0.1,0.1,0.2,0.2c0,0,0,0.1-0.1,0.1
			c0.2,0.1,0.1,0.1,0.2,0.1c0,0,0,0-0.1,0.1c0,0.2,0,0.2,0,0.3c0.1,0.1,0,0-0.1,0c0,0.1,0.1,0.1,0.2,0.1c0,0-0.1,0.1-0.1,0.2
			c0,0.2,0.3,0.5,0.6,0.6c0,0.1,0,0.2,0,0.4c0.2,0.1,0.4,0.4,0.5,0.5c-0.1,0.2,0.1,0.2,0,0.4c-0.1,0.2-0.3,0.2-0.3,0.5
			c-0.1,0,0,0.2,0.1,0.3h-0.1c0,0.1,0,0.1,0,0.2s0,0,0.1,0.1c-0.1,0.1-0.1,0.1-0.2,0.1c0,0.2,0,0.2-0.1,0.3h0.1c0,0,0,0-0.1,0
			c0,0,0,0,0.1,0c0,0.1-0.1,0.2,0,0.3c-0.1,0-0.1,0-0.2,0.1l0.1,0.1c0.1,0.1,0,0,0.1,0.1c-0.1,0,0,0-0.1,0l0,0c0,0.1,0,0,0,0.1v0.1
			h-0.1c0,0.1,0.1,0.1,0,0.2c0.1,0,0.1,0,0.1,0l0,0c0,0,0,0-0.1,0c0.1,0.2,0.2,0.2,0.2,0.4c0.1,0.1,0.1,0,0.1,0.1h-0.1
			c0,0.1,0,0,0,0.1h0.1c0,0.1-0.1,0.2-0.2,0.2v0.1c-0.1,0.1-0.1,0-0.1,0.1l0,0l0.1,0.1h-0.1l0,0v0.1h-0.1c0,0.1,0,0.1,0.1,0.1
			c0,0,0,0-0.1,0c0,0.1-0.1,0-0.1,0l0,0c0,0.1,0.1,0.1,0.1,0.2l0,0c-0.1,0-0.1-0.1-0.2-0.1c0,0.1,0,0.1,0,0.2c0,0,0.1,0,0.1,0.1
			c0,0,0,0,0,0.1c-0.1,0-0.1,0-0.2,0c-0.1,0.1,0,0,0,0.1c-0.1,0.1-0.1,0.1-0.1,0.2c0-0.1-0.1-0.1-0.1-0.2h-0.1c0,0.1,0,0.2-0.2,0.3
			v-0.1h-0.1c-0.1,0.1-0.1,0.1-0.1,0.2c-0.1,0-0.2,0-0.2,0c-0.1,0.1-0.1,0.1-0.1,0.2c-0.2,0.1-0.4,0.4-0.7,0.3c-0.1-0.1,0-0.1,0-0.2
			h-0.1c-0.1,0.2-0.2,0.4-0.2,0.7c-0.1,0-0.1,0-0.2,0.1s-0.1,0.1-0.1,0.2c0,0,0,0-0.1,0c-0.1-0.1-0.1-0.2-0.3-0.2v0.3l0,0
			c-0.1-0.1-0.2-0.2-0.3-0.3c-0.2,0-0.2,0.1-0.4,0.1v0.1l0.1,0.1c-0.1,0.1-0.4,0.1-0.5,0.2c-0.1-0.1-0.1-0.2-0.2-0.3h-0.1
			c0,0.1-0.1,0.3-0.1,0.4h-0.1c0-0.1,0-0.1,0-0.2c0,0,0,0-0.1,0c0,0,0,0-0.1,0c0,0.1,0,0.2,0,0.3l0,0c-0.1,0-0.2,0-0.3-0.1
			c-0.1,0-0.1,0-0.2,0.1h-0.1c0-0.1,0-0.2,0-0.3h-0.1c-0.2,0.2,0,0.4-0.4,0.5c-0.1,0.1,0,0.3-0.1,0.5c0,0.1-0.1,0.2-0.2,0.3
			c-0.2,0-0.2-0.1-0.3,0.1c-0.2,0-0.2-0.1-0.4-0.1c0,0,0,0.1-0.1,0.1c0.1,0.1,0.2,0.2,0.3,0.3l0,0c-0.1,0-0.3,0-0.5,0
			c0,0.1,0,0.1,0,0.2c0,0,0,0-0.1,0c-0.1-0.1-0.1-0.2-0.2-0.2c-0.2,0-0.3,0.2-0.4,0.4c-0.1,0.1-0.2,0-0.4,0c0,0.1,0,0.1-0.1,0.2
			c-0.1,0-0.2,0-0.2,0.1s0,0.2,0.1,0.2c-0.1,0.1-0.3,0.2-0.4,0.4c0,0,0.1,0,0.1,0.1c-0.2,0.1-0.4,0.2-0.6,0.3
			c0.3,0.5,0.6,1.1,0.9,1.6c1.1,0,2,0.1,2.9,0.3c0.2,0,0.5,0.1,0.7,0.1c0.6,0.6,1.2,1.1,1.8,1.7c0.1,0.1,0.2,0.3,0.4,0.4
			c-1.4,0-2.7,0.2-4.1,0.2c-0.7,0-1.7-0.1-2.1,0.2c-0.2,0.2-0.3,2.1-0.4,2.6c-0.1,0.6-0.1,1.4,0.1,1.9c1,0.2,1.9,0.4,2.9,0.6
			c3,0.1,6,0.1,9,0.2c0.6,0,1.2,0,1.9,0c0.9,0.1,1.9,0.3,2.8,0.4c0.9-0.3,1.9-0.7,2.8-1c0.4-0.2,0.7-0.5,1.1-0.7
			c0.7,0.2,1.5,0.3,2.2,0.5c0.3,0.2,0.5,0.4,0.8,0.6c0.3,0.1,1.6,0.5,2,0.5c0.4-0.1,0.9-0.2,1.3-0.3c0.3,0,0.5-0.1,0.8-0.1
			c1-0.5,1.4-1.7,1.9-2.6c0.3-0.4,0.6-0.8,0.8-1.2c0.2-0.1,0.3,0,0.4-0.1c0.8-1,1.7-1.9,2.8-2.5c0.4-0.3,1-0.8,1.6-0.8
			c0.1-0.2,0.2-0.4,0.4-0.5c0,0,0,0,0-0.1h-0.1c0-0.3,0.4-1.2,0.6-1.3l0,0c-0.1,0,0,0-0.1,0c-0.1-0.2,0.2-0.9,0.3-1
			c-0.1-0.1,0,0-0.1,0c-0.1-0.3,0.1-0.5,0.2-0.7c-0.1-0.1,0-0.1-0.1,0v-0.1c0.1-0.1,0,0,0.1,0c0.1-0.2-0.1-0.5-0.1-0.8
			c-0.1-0.2,0-0.3-0.2-0.3c0-0.1,0,0,0-0.2c0.1,0,0.1,0,0.1,0.1c0.1,0,0.1,0,0.1-0.1s-0.4-0.3-0.3-0.9c0.1,0,0.1,0,0.2,0
			c0.1-0.1,0.1-0.2,0.1-0.4l0,0c0,0,0,0,0.1,0c0-0.2,0-0.2,0-0.5c-0.1,0-0.2,0.1-0.3,0.1c-0.1-0.2-0.1-0.3-0.1-0.5
			c0.2-0.1,0.3-0.1,0.5-0.2l0.1,0.1c0,0,0,0-0.1,0c0,0.1,0,0,0.2,0l0,0c0-0.1-0.1-0.1-0.1-0.1c0-0.1,0.1-0.2,0.2-0.2l0,0
			c-0.1,0,0,0-0.1,0c-0.2,0-0.1,0-0.1-0.2c-0.1,0.1-0.1,0.1-0.2,0.2c-0.1,0-0.1,0-0.2,0c-0.1-0.1-0.1-0.1-0.1-0.3
			c0.1,0,0.2-0.4,0.2-0.5c-0.1-0.1,0,0-0.1-0.1c-0.1,0-0.1,0-0.2,0l0,0c0-0.2-0.1-0.6,0-0.8c0.1-0.1,0.1,0,0.2-0.2
			c0-0.1,0-0.1,0-0.1l-0.1,0.1c-0.1-0.1-0.1-0.1-0.2-0.1c-0.5-0.5,0.7-2.4,0.9-2.9l0,0c-0.2-0.1-0.1-0.1-0.1-0.3h-0.3
			c-0.3-0.5,0.1-1.2,0-1.6c0.1,0,0.1,0,0.2,0c0-0.4,0.5-1.1,0.7-1.3c0.1-0.1,0.3-0.1,0.4-0.2c0.1-0.1,0.2-0.2,0.2-0.3l-0.1-0.1l0,0
			c0.1-0.1,0.3-0.1,0.5-0.1c0.2-0.5,1-1.4,1.6-1.6c0-0.2,0.1-0.3,0-0.5h0.1c0-0.5,0.6-0.7,0.9-1c0.5-0.4,1.1-0.8,1.7-1.1
			c0.3-0.1,0.5-0.3,0.8-0.4c0.4-0.3,0.7-0.6,1.2-0.8c0,0,0,0,0-0.1l-0.1-0.1c0.5-0.8,2-1.5,3-1.9c0.1,0,0.1,0,0.2,0.1l0,0
			c0.1-0.1,0.1-0.2,0.2-0.3c0.1,0,0.1,0,0.2,0s0,0,0.1,0.1c-0.1,0.1-0.1,0-0.1,0.1h0.1c0.1,0,0,0,0.1,0c0,0.1,0,0,0,0.1
			c0.2-0.1,0.1-0.2,0.4-0.3v0.1c0.1-0.1,0.2-0.2,0.2-0.4h-0.1c0.1-0.2,0.3-0.2,0.3-0.5c0.1-0.1,0.4-0.2,0.4,0l0,0
			c0.3-0.3,2.1-0.6,2.2-0.1c0.3,0,0.5,0,0.6,0.2c0.3,0,0.4,0,0.6-0.1c0.1-0.2,0-0.3,0-0.5h-0.1c-0.1-0.4,0-0.5,0.3-0.5
			c0.1-0.1,0.2-0.2,0.3-0.3c0.3,0,0.2,0.1,0.6,0c0-0.1,0-0.1-0.1-0.2c0.1-0.1,0.1-0.1,0.2-0.1c0.1,0.1,0,0,0,0.1h0.2
			c0-0.1,0-0.2-0.1-0.3c0.1,0.1,0.2,0.1,0.4,0.2c0,0,0-0.1-0.1-0.1h0.1v0.1l0,0c0-0.1,0-0.2,0.1-0.3c0.1,0,0.2,0,0.3,0l0,0
			c-0.1-0.1-0.2,0-0.3-0.1c0.1-0.1,0,0,0-0.1c0.2,0,0.7-0.2,0.8-0.4h0.1c0,0.1,0,0.1,0,0.2c0.1,0,0,0,0.1,0c0.2,0,0.2,0,0.2,0.1
			c0.3,0,0.4-0.1,0.6-0.1c0-0.1,0,0,0-0.1c0.1-0.1,0.3-0.1,0.5-0.1v0.1l0,0H73c0,0.1,0,0,0.1,0.1c0.2-0.1,0.1-0.3,0.4-0.4
			c0-0.1,0-0.1-0.1-0.1c-0.1-0.1-0.1,0-0.3,0c0-0.1,0.1-0.1,0.1-0.2c-0.1,0-0.1,0-0.2,0c0,0.1-0.1,0.2-0.2,0.3l0.2-0.3
			c-0.2,0-0.2,0-0.4,0.1c0.1-0.1,0.2-0.1,0.3-0.1c0-0.1,0-0.1,0-0.1l-0.1-0.1c-0.1,0-0.2,0.1-0.3,0.2c-0.1,0-0.1-0.1-0.1-0.2
			c0.1-0.1,0.2-0.4,0.2-0.7c0.2,0,0.3-0.1,0.4,0c0.1,0,0.5-0.2,0.6-0.3c0.1,0,0.1,0,0.2,0.1c0.1-0.1,0-0.2,0.1-0.4H74
			c0,0.1,0,0,0,0.1c0.1,0,0,0,0.1-0.1c0.1,0,0.1,0,0.1-0.1h-0.1c0-0.1,0.2-0.1,0.2-0.1c0,0.1,0,0.1-0.1,0.2c0.1,0,0,0,0.2,0v0.1
			c-0.1,0-0.2,0-0.2,0.1s0,0,0,0.1c0.2,0,0.2,0,0.3-0.1v0.1c0.2,0,0.2-0.1,0.4-0.1c0,0.1,0,0,0.1,0.1c0,0,0,0.1-0.1,0.1
			c0,0,0,0-0.1,0.1c0.2,0.2,0.9-0.1,0.9-0.5c0.1,0,0.1,0,0.2,0c0,0.1,0,0.1-0.1,0.1v0.1c0.1-0.1,0.1-0.2,0.2-0.2s0.8-0.2,0.9-0.2
			h-0.1v0.1c0.2,0,0.2-0.1,0.4,0c0.2,0.1,0.3,0.3,0.5,0.4s0.5,0,0.6,0.4c0.2-0.1,0.4-0.2,0.7-0.3c0.5-0.1,0.8,0,1.1-0.1
			c0.2,0,0.3-0.1,0.4-0.2l0,0c-0.1,0,0,0-0.1,0c0-0.1,0-0.1,0.1-0.2c-0.1-0.1-0.1-0.1-0.3-0.1v-0.1H80c0-0.2-0.1-0.3-0.2-0.3
			c0.1-0.4,0.7-0.5,1-0.7c0.1,0,0.2,0,0.2,0.1s0,0.2,0,0.2c-0.2,0.2-0.3,0.4-0.4,0.7c-0.1,0.1-0.1,0-0.1,0.2c0.1,0,0.1,0,0.2,0.1
			l0,0l0,0c0,0,0,0-0.1-0.1c-0.1,0,0,0-0.1,0.1l0,0c0.2,0,0.4,0.1,0.4,0.2c0.5,0,0.9-0.1,1.4-0.1c0.2,0,0.4,0,0.5,0
			c0.5-0.2,1.3-0.2,1.9-0.1c0.5,0.1,1.5-0.1,1.6,0.3l0,0c0-0.1,0-0.1,0-0.1c0.1,0,0.1,0,0.1-0.1c-0.1-0.1-0.1-0.1-0.2-0.1
			c0-0.1,0-0.2,0-0.2c0.1,0,0.1-0.1,0.2-0.1c0,0,0-0.1,0-0.2c0.1-0.1,0.2,0,0.2-0.2c0.1-0.1,0.1-0.1,0.3,0c0-0.1,0-0.1,0.1-0.1
			c0-0.1,0,0,0-0.1l0,0c-0.1,0.1-0.2,0.1-0.2,0.2c-0.1,0-0.2-0.2-0.4-0.2c-0.1-0.3-0.1-0.8,0.1-1c0.1,0,0.4-0.2,0.5-0.3
			c0.2-0.2,0.1-0.3,0.5-0.5c0-0.1,0-0.1,0-0.1c0.6-0.7,1.9-0.8,2.9-1.1c0.4-0.2,0.8-0.4,1.2-0.7c0.2-0.4-0.1-1-0.2-1.4
			c0-0.2,0-0.5,0.1-0.7h-0.1c-0.5-0.5,0.2-0.8,0.4-1.2c0-0.2,0-0.4,0-0.6c0.1-0.3,0.4-0.4,0.5-0.6c0.3-0.4,0.3-1.1,0.5-1.4
			c0.1-0.1,0.4-0.2,0.5-0.3c0,0,0,0,0.1,0c0.1,0.1,0,0,0,0.1c0.2-0.1,0.7-0.7,0.7-0.9l0,0c0.1,0,0.1,0,0.1-0.2l0.1,0.1
			c0.2-0.1,0.7-1.3,0.8-1.6c0.1-0.1,0.1-0.1,0-0.1c0.1-0.1,0,0,0-0.1s0,0,0,0c0-0.1,0-0.1,0.2-0.1c0,0.1,0,0,0,0.1l0,0
			c0.3-0.2,0.5-0.9,0.3-1.3h0.1c0.2-0.7,0.8-1.9,1.8-2c0.2-0.5,0.5-1,0.6-1.6c0.1-0.5-0.1-0.9-0.2-1.3c0-0.4-0.1-0.8-0.1-1.2
			c-0.1-0.6,0.1-0.9,0.1-1.3c0-0.2,0-0.4,0-0.5c0.4-1.3,1-3,2.4-3.2c0-0.4,0.5-0.6,0.6-0.9c0.1-0.1-0.2-0.3-0.3-0.5v-0.9
			c0-0.2-0.1-0.3-0.1-0.5c-0.1-0.6,0.3-1.9,0.5-2.3c0-0.1-0.2-0.4-0.1-0.7c0.1-0.1,0.1-0.2,0.2-0.3c0.2-0.4,0-1.5,0.5-1.7
			c0-0.2-0.2-0.4,0-0.6c0.1-0.2,0.3-0.3,0.4-0.5c0-0.2-0.1-0.3,0-0.5c0.2-0.4,0.3-0.7,0.5-1.1c-0.5-0.4-0.3-1.3-0.5-1.9
			c-0.1-0.4-0.2-0.8-0.3-1.3V65c-0.1-0.3-0.2-0.7-0.2-1c0,0,0,0,0-0.1c-0.1-0.1-0.2-0.2-0.2-0.4c0.1-0.7,0.3-1.5,0.5-2
			c0-0.1,0-0.2-0.1-0.4c0-0.3,0.1-0.5,0.2-0.8c0.1-0.2,0.2-0.9,0.1-1c-0.4-0.6-0.4-0.4-0.1-1.1c0.2,0,0.2,0,0.3,0
			c0.1-0.1,0.1-0.1,0-0.2c0,0-0.1-0.2-0.2-0.3c0-0.2,0-0.3,0.1-0.4c0-0.1,0,0,0-0.1c0.1,0,0.1,0,0.2-0.1c-0.1-0.1-0.1-0.2-0.1-0.4
			c-0.1,0-0.1,0-0.2,0.1c-0.6-1.3,1.8-1.3,1.7-2.4c0.1,0,0.2,0,0.3,0c0,0.2,0,0.2-0.1,0.4l0,0c0.8,0.2,1.2-0.3,1.6-0.6
			c1-0.9,2-2.2,2.7-3.4c0.2-0.3,0.6-0.7,0.7-1.1c0.3-0.9,0.7-1.8,1.2-2.5c0.1-0.2,0.3-0.3,0.4-0.4c0.2-0.3,0.2-0.6,0.3-0.8
			c0.2-0.2,0.4-0.4,0.5-0.6c0.2-0.6,0.7-1.3,1.1-1.7c0.5-0.5,1.1-1,1.8-1.3c0.3-0.1,1-0.2,1.1-0.4c0.2-0.4,0.3-0.8,0.5-1.1
			c0.4-0.5,1-0.7,1.3-1.2c0.4-0.5,0.9-1.7,1.5-1.9c0,0,0,0,0,0.1c0.2-0.1,0.2-0.4,0.4-0.6c0.1-0.1,0.2-0.1,0.3-0.2
			c0.1-0.1,0.4-0.4,0.5-0.6c0-0.1,0-0.2,0-0.2c0.2-0.2,0.4-0.3,0.6-0.5c0.3-0.4,0.4-0.8,0.7-1.3c0.1-0.1,0.2-0.2,0.3-0.3
			c0.3-0.4,0.5-2.1,0.9-2.1c0-0.4,0.2-0.8,0.3-1.1c0-0.1-0.1-0.3,0-0.4c0.1-0.5,0.4-1,0.6-1.4c0.1-0.2,0.1-0.9,0-1
			c0.1-0.2,0.2-0.5,0-0.7C124.8,26.8,124.4,26.7,124.5,26.4z M25.6,121.3C25.6,121.2,25.6,121.3,25.6,121.3L25.6,121.3L25.6,121.3z
			 M25.7,127.6C25.7,127.6,25.7,127.5,25.7,127.6L25.7,127.6C25.7,127.6,25.7,127.5,25.7,127.6z"/>
	</g>
</g>
</svg>
