<?xml version="1.0" encoding="utf-8"?>
<!-- Generator: Adobe Illustrator 25.2.0, SVG Export Plug-In . SVG Version: 6.00 Build 0)  -->
<svg version="1.1" id="Camada_1" xmlns="http://www.w3.org/2000/svg" xmlns:xlink="http://www.w3.org/1999/xlink" x="0px" y="0px"
	 viewBox="0 0 137 158" style="enable-background:new 0 0 137 158;" xml:space="preserve">
<style type="text/css">
	.st0{fill:#00CCFF;}
</style>
<g id="Forma_1_7_">
	<g>
		<path class="st0" d="M105.3,57.3c-0.6-0.3-1.2-0.6-1.8-0.9v-2.7c-0.3-0.3-1.6,0.2-0.9-0.9c0.9-0.3,1.8-0.6,2.7-0.9
			c0.3-2.1,0.6-4.2,0.9-6.2h-3.6c0.3-0.9,0.6-1.8,0.9-2.7h-0.9c-0.3-0.6-0.6-1.2-0.9-1.8c1.4-0.5,1.4-0.7,3.6-0.9v-2.7h-0.9
			c-0.1-3,0-3.3-1.8-4.4v-0.9c0,0-4.8,0.8-6.2,0.9c-0.3-3.1-1.6-5.3,0-7.1v-0.9c-1.5-0.3-3-0.6-4.4-0.9c-0.3,0.6-0.6,1.2-0.9,1.8
			h-1.8c-0.9-2.7-1.8-5.3-2.7-8h-0.9v-0.9c-2.8,0.7-2.9,1.8-4.4,3.6h-0.9c-0.3,0.9-0.6,1.8-0.9,2.7c-3.1,1.9-3-2.3-4.4,2.7h-1.8
			c-0.7,2.4-0.2,2-2.7,2.7c-1,1,0,0.4-1.8,0.9c-0.3-0.9-0.6-1.8-0.9-2.7h-3.6c-0.5-1.8,0.1-0.8-0.9-1.8c-0.8-1,0.1-0.1-0.9-0.9
			c-0.6,1.5-1.2,3-1.8,4.4c-4.4-0.5-5-2.7-8.9-3.6c-0.8-3.3-1.8-5-1.8-9.8h-2.7v0.9h-0.9v2.7h-1.8c-0.8,3-1.9,2.3-2.7,5.3
			c-3.4-1-2.8-2.7-6.2-3.6c-0.7-2.4-0.2-2-2.7-2.7c-1-1,0-0.4-1.8-0.9c-0.3,0.9-0.6,1.8-0.9,2.7c0,0,1.5,0.4,0.9,1.8
			c-0.9,0.3-1.8,0.6-2.7,0.9v0.9c-1.6,1.4-2,1-2.7,3.6c-2.4,0.7-2,0.2-2.7,2.7c4.8,0.9,12.1,0.9,16.9,0c-0.3,1.8-0.6,3.6-0.9,5.3
			h-1.8c-0.5,1.8,0.1,0.8-0.9,1.8c-0.1,3.8-0.1,7.1,1.8,8.9v1.8c0.6,0.3,1.2,0.6,1.8,0.9c0.3,0.9,0.6,1.8,0.9,2.7h1.8
			c0.3,0.6,0.6,1.2,0.9,1.8h1.8v0.9c1.2-0.3,2.4-0.6,3.6-0.9c1.6,4,3.9,12.1,7.1,14.2V68h-1.8c-1.3,6-3.8,8.8-2.7,15.1h-1.8
			c-1.3,5.7-5.7,8.8-6.2,15.1c2.5,0.7,2.6,1.6,4.4,2.7v1.8c-2.9,0.3-2.6,0.8-4.4,1.8c-0.3,0.9-0.6,1.8-0.9,2.7h1.8
			c-0.8,2.3-0.6,1.3,0.9,3.6h0.9c-0.2,0.8-1.8,2-0.9,3.6h0.9c0,0,0.1,3.5,0.9,1.8v-0.9h0.9c-0.3,0.9-0.6,1.8-0.9,2.7h1.8
			c-0.3,0.9-0.6,1.8-0.9,2.7h0.9v5.3c0,0-1-0.2-0.9,1.8h0.9v0.9h-0.9c-0.3,0.9-0.6,1.8-0.9,2.7h-0.9v0.9h0.9c0.6,2.3,0.7,6.2-0.9,8
			c0.2,2.1,0.4,2.2,0.9,3.6H52v-0.9h0.9v-1.8H52v-6.2c0,0,1.4-0.8,0.9-2.7H52v-0.9c1.1-0.5,1.9-0.9,2.7-1.8h1.8v-0.9h-1.8
			c0.6-1.8,1.2-3.6,1.8-5.3c2.7-0.7,3.1-1.7,3.6-4.4c-1.5-0.3-3-0.6-4.4-0.9c1.1-5.4,2.5-5.5,7.1-7.1v-3.6c-2.1,0.2-2.2,0.4-3.6,0.9
			v-0.9h-0.9c0.3-0.6,0.6-1.2,0.9-1.8h-0.9c-0.5-2.4,2-4.5,2.7-7.1c1.8-0.2,3.8-1.1,6.2,0c0.6,0.3,0.1,1.1,2.7,1.8
			c1,3.9,4.2,4.7,0.9,7.1v0.9h3.6v2.7H76V108c1-2.4,5.4-4.1,0.9-7.1V100h1.8v-0.9c0.5,0,1.7,0.8,3.6,0.9c-1.2,2.3-1.6,1.5-1.8,5.3
			c1.8-0.5,0.8,0.1,1.8-0.9c1.4,1.2,2,3.5,2.7,5.3c1.8,0.3,3.6,0.6,5.3,0.9v-1.8h-1.8c0.8-2.9,2.3-3.1,3.6-5.3h1.8
			c0.3-1.5,0.6-3,0.9-4.4c1.2-0.9,2.4-1.8,3.6-2.7c-0.3-1.2-0.6-2.4-0.9-3.6c0.9,0.3,1.8,0.6,2.7,0.9c0.3-0.9,0.6-1.8,0.9-2.7h0.9
			v-8c0.6-0.3,1.2-0.6,1.8-0.9c1.2-3.7-5.5-4.6,0.9-8.9c-0.4-3.4-1.1-3.4-3.6-4.4v-1.8h1.8c0.6,2.6,1,2.9,3.6,3.6v-5.3
			c-0.9-0.3-1.8-0.6-2.7-0.9C103.9,61.6,106.5,60.4,105.3,57.3z"/>
	</g>
</g>
</svg>
